<svg xmlns="http://www.w3.org/2000/svg" viewBox="0 0 24 24" width="48" height="48" color="#fff" fill="none">
    <path d="M2.5 12c0-4.478 0-6.718 1.391-8.109S7.521 2.5 12 2.5c4.478 0 6.718 0 8.109 1.391S21.5 7.521 21.5 12c0 4.478 0 6.718-1.391 8.109C18.717 21.5 16.479 21.5 12 21.5c-4.478 0-6.718 0-8.109-1.391C2.5 18.717 2.5 16.479 2.5 12z" stroke="currentColor" stroke-width="1.5"/>
    <circle cx="16.5" cy="7.5" r="1.5" stroke="currentColor" stroke-width="1.5"/>
    <path d="M16 22c-.62-2.225-2.066-4.218-4.123-5.666-2.22-1.561-5.005-2.387-7.861-2.331-.34-.001-.678.01-1.016.032" stroke="currentColor" stroke-width="1.5" stroke-linejoin="round"/>
    <path d="M13 18c1.701-1.327 3.535-2.007 5.386-2a7.792 7.792 0 0 1 3.114.662" stroke="currentColor" stroke-width="1.5" stroke-linejoin="round"/>
</svg>
