<svg xmlns="http://www.w3.org/2000/svg" viewBox="0 0 24 24" width="24" height="24" color="#000" fill="none">
    <path fillRule="evenodd" clipRule="evenodd" d="M5.932 1.518a1 1 0 0 1 .05 1.414c-.933 1-1.543 2.19-1.744 3.473a1 1 0 1 1-1.976-.31c.27-1.716 1.08-3.264 2.257-4.527a1 1 0 0 1 1.413-.05zM12.75 1.547a.296.296 0 0 0-.312-.297c-.599.033-1.188.092-1.765.163-2.799.345-4.962 2.67-5.18 5.415-.132 1.666-.243 3.392-.243 5.156 0 1.764.11 3.49.243 5.155.218 2.746 2.381 5.07 5.18 5.416.916.113 1.861.194 2.827.194s1.911-.081 2.827-.194c2.799-.346 4.962-2.67 5.18-5.416.132-1.665.243-3.39.243-5.155 0-1.764-.11-3.49-.243-5.156-.218-2.745-2.381-5.07-5.18-5.415a26.544 26.544 0 0 0-1.765-.163.296.296 0 0 0-.312.297v3.44c0 .151.114.275.259.316a1.751 1.751 0 0 1 1.108 1.004c.082.2.11.395.122.573.011.165.011.363.011.577v1.045c0 .215 0 .412-.011.577-.012.178-.04.374-.122.573a1.751 1.751 0 0 1-1.108 1.004c-.146.041-.259.165-.259.316v1.013a.75.75 0 1 1-1.5 0v-1.013c0-.151-.114-.275-.259-.316a1.751 1.751 0 0 1-1.108-1.004 1.786 1.786 0 0 1-.122-.573c-.011-.165-.011-.362-.011-.577V7.457c0-.214 0-.412.011-.577.012-.178.04-.374.122-.572a1.751 1.751 0 0 1 1.108-1.005c.146-.04.259-.165.259-.316v-3.44zm.016 5.356a.136.136 0 0 1 .015-.045.25.25 0 0 1 .1-.1.135.135 0 0 1 .043-.014.967.967 0 0 1 .08-.008c.108-.008.253-.008.496-.008s.388 0 .496.008a.962.962 0 0 1 .08.008c.015.002.03.007.044.015a.25.25 0 0 1 .1.1.136.136 0 0 1 .014.044.95.95 0 0 1 .008.08c.008.107.008.252.008.496V8.48c0 .244 0 .389-.008.497a.95.95 0 0 1-.008.08.136.136 0 0 1-.015.044.25.25 0 0 1-.1.1.135.135 0 0 1-.043.014.97.97 0 0 1-.08.009 8.29 8.29 0 0 1-.496.007c-.243 0-.388 0-.496-.007a.97.97 0 0 1-.08-.009.135.135 0 0 1-.044-.014.25.25 0 0 1-.1-.1.136.136 0 0 1-.014-.044.95.95 0 0 1-.008-.08 8.281 8.281 0 0 1-.008-.497V7.48c0-.244 0-.389.008-.497a.95.95 0 0 1 .008-.08z" fill="currentColor"/>
</svg>
