<svg xmlns="http://www.w3.org/2000/svg" width="5078" height="74">
    <path fillRule="evenodd" fill="#FFF" d="M5077.978 7.555c.015 16.514.002 33.027.02 49.539 0 .43-.03.82-.096 1.171v2.881c0 .582.015 1.168-.173 1.733-.497.892-1.375 1.168-2.281 1.355-1.386.291-2.78.559-4.202.592-13.495.312-26.945-.144-40.351-1.899a190.7 190.7 0 0 0-23.656-1.61c-9.077-.052-18.2.583-27.214-.718-2.431.199-4.862.41-7.291.637-10.118.946-20.198 2.313-30.323 3.125a1893.792 1893.792 0 0 1-39.86 2.744c-13.79.813-27.589 1.449-41.378 2.293-10.728.655-21.405 1.82-32.096 2.838-8.789.837-17.612 1.063-26.409 1.726-2.53.191-4.977-.303-7.303-1.355-1.222-.553-2.483-.995-3.835-1.063-7.648-.376-15.269-1.271-22.945-1.082-2.498.061-5 .055-7.498-.025-1.987-.034-2.465.01-2.935-1.024-.835-1.837-2.241-1.454-3.564-1.251-2.65.405-5.261.612-7.949.224-6.104-.882-12.281-1.003-18.426-1.303-3.441-.168-6.929.218-10.415.757-4.06.631-8.191 1.348-12.367 1.103-2.599-.151-5.023-1.205-7.611-1.396-13.116-.976-26.25-1.598-39.392-2.084-1.335-.051-2.674-.039-3.952-.485-1.883-.652-3.762-.527-5.668-.11a69.19 69.19 0 0 1-15.373 1.615c-12.242-.101-24.516-.452-36.682 1.178-13.647 1.826-27.322 2.547-41.076 2.357-3.527-.046-6.938-1.269-10.428-.955-6.98.628-13.956.515-20.945.431-6.412-.079-12.837.237-19.144-1.338-.969-.241-1.992-.128-2.987-.199-4.22-.304-8.507-.222-12.464-2.109-.63-.302-1.312-.18-1.971-.092-1.658.22-3.325.227-4.991.2-12.404-.21-24.777-1.034-37.143-1.952-.508-.037-1.016-.08-1.524-.118-4.969.614-9.991.398-15 .496-6.909.135-13.801.171-20.695-.452-2.918-.263-5.749.869-8.68.928-14.083.277-28.098-.369-42.081-2.233-10.747-1.433-21.594-1.48-32.427-1.266-5.476.109-10.928-.008-16.321-.839-1.943.183-3.885.375-5.827.577-23.688 2.452-47.378 4.72-71.169 5.993-13.875.741-27.755 1.46-41.626 2.308-10.812.661-21.568 1.858-32.344 2.868-8.79.824-17.612 1.07-26.411 1.7-2.451.175-4.806-.348-7.052-1.361-1.221-.551-2.481-.998-3.834-1.064-7.73-.379-15.435-1.282-23.194-1.079-2.414.062-4.832.048-7.248-.021-1.003-.029-2.33.04-2.758-.848-1-2.073-2.635-1.667-4.197-1.369-2.829.539-5.606.376-8.444.025-5.866-.725-11.786-.927-17.684-1.166-2.86-.117-5.787-.08-8.697.472-4.471.847-9.012 1.362-13.581 1.387-2.698.015-5.189-1.201-7.858-1.398-13.116-.972-26.25-1.587-39.391-2.082-1.249-.048-2.52.031-3.711-.402-2.133-.775-4.24-.56-6.397-.102-4.655.989-9.353 1.546-14.132 1.526-8.165-.032-16.347-.388-24.491.116-13.536.841-26.967 3.004-40.545 3.438-1.743.054-3.467.181-5.226.118-6.236-.224-12.471-.85-18.679-.957-6.539-.114-13.129.143-19.686.368-9.387.324-18.628-.895-27.85-2.055-6.736-.847-13.416-1.455-20.21-1.679-11.399-.374-22.8-.974-34.175-1.96-5.022.474-10.066.752-15.153.577-6.556-.226-13.147-.48-19.686-.367-6.207.107-12.443.732-18.679.954-1.759.063-3.483-.063-5.226-.117-13.578-.434-27.009-2.593-40.545-3.43-8.144-.505-16.326-.149-24.491-.116-3.535.013-7.025-.288-10.487-.843-3.751.313-7.498.669-11.236 1.098-23.255 2.665-46.58 4.381-69.933 5.785-12.544.751-25.099 1.285-37.646 1.992-10.815.609-21.57 1.839-32.345 2.854-8.789.827-17.611 1.072-26.411 1.703-2.446.175-4.807-.329-7.055-1.342-1.143-.516-2.317-.984-3.582-1.046-6.401-.315-12.778-1.052-19.194-1.099-3.749-.026-7.499.028-11.248-.026-1.17-.018-2.606.073-3.217-.99-1.003-1.744-2.429-1.561-3.881-1.262-2.993.622-5.937.365-8.938.009-5.704-.674-11.456-.9-17.187-1.131-3.447-.138-6.93.255-10.413.772-3.981.593-8.023 1.316-12.116 1.111-2.606-.131-5.029-1.162-7.609-1.401-9.287-.866-18.629-.853-27.911-1.669-5.707-.5-11.504.243-17.135-1.274-1.051-.282-2.169-.184-3.227.072-6.945 1.686-14.005 1.923-21.105 1.783-10.833-.216-21.68-.167-32.427 1.268-13.983 1.868-27.999 2.516-42.081 2.237-2.931-.058-5.762-1.193-8.68-.929-6.894.625-13.786.589-20.695.453-6.575-.128-13.173.285-19.643-1.348-.805-.205-1.658-.135-2.489-.187-4.391-.268-8.837-.196-12.958-2.142-.62-.294-1.316-.15-1.976-.061-1.575.212-3.158.218-4.741.195-12.489-.192-24.944-1.033-37.394-1.955-.501-.036-1.001-.078-1.502-.115-4.81.596-9.669.432-14.521.491-6.989.084-13.965.196-20.945-.432-3.49-.311-6.901.909-10.428.956-13.753.187-27.429-.53-41.076-2.353-12.166-1.626-24.44-1.276-36.682-1.176a68.776 68.776 0 0 1-11.26-.839c-2.048.176-4.094.368-6.138.582-23.687 2.473-47.38 4.709-71.172 5.978-13.875.742-27.754 1.462-41.626 2.309-10.729.653-21.403 1.837-32.095 2.844-8.79.829-17.612 1.062-26.41 1.717-2.533.188-4.974-.318-7.299-1.375-1.141-.52-2.322-.965-3.587-1.025-6.817-.321-13.606-1.15-20.444-1.096-3.333.026-6.666.041-9.998-.021-1.085-.021-2.423.071-3.01-.888-1.138-1.857-2.718-1.651-4.356-1.316-2.742.563-5.442.341-8.195.007-5.868-.711-11.786-.918-17.684-1.17-2.779-.117-5.634-.152-8.451.437-4.303.902-8.696 1.198-13.083 1.435-1.081.06-2.175-.009-3.228-.292-6.663-1.793-13.537-1.704-20.331-2.133-10.116-.639-20.279-.532-30.346-1.958-.747-.105-1.516-.137-2.241.044-10.835 2.694-21.876 1.753-32.85 1.816-7.928.045-15.814.585-23.656 1.613-13.406 1.757-26.856 2.214-40.35 1.902-.59-.013-1.174-.067-2.655-.146.319.079-.265.133-.854.146-13.495.312-26.945-.145-40.351-1.902a190.125 190.125 0 0 0-23.656-1.613c-10.974-.063-22.015.878-32.85-1.816-.726-.181-1.494-.149-2.241-.044-10.067 1.426-20.23 1.319-30.346 1.958-6.794.429-13.668.34-20.331 2.133-1.053.283-2.147.352-3.228.292-4.386-.237-8.78-.533-13.083-1.435-2.817-.589-5.672-.554-8.451-.437-5.898.252-11.816.459-17.685 1.17-2.752.334-5.452.556-8.194-.007-1.638-.335-3.218-.541-4.356 1.316-.587.959-1.925.867-3.009.888-3.333.062-6.666.047-9.999.021-6.838-.054-13.627.775-20.443 1.096-1.267.06-2.447.505-3.588 1.025-2.324 1.057-4.766 1.563-7.299 1.375-8.798-.655-17.62-.888-26.41-1.717-10.692-1.007-21.366-2.191-32.095-2.844-13.871-.847-27.751-1.567-41.626-2.309-23.792-1.269-47.485-3.505-71.172-5.978-2.044-.214-4.09-.406-6.138-.582a68.776 68.776 0 0 1-11.26.839c-12.242-.1-24.516-.45-36.682 1.176-13.647 1.823-27.322 2.54-41.076 2.353-3.527-.047-6.938-1.267-10.428-.956-6.98.628-13.956.516-20.945.432-4.852-.059-9.711.105-14.521-.491-.501.037-1.002.079-1.502.115-12.45.922-24.906 1.763-37.394 1.955-1.583.023-3.166.017-4.741-.195-.66-.089-1.356-.233-1.976.061-4.12 1.946-8.567 1.874-12.958 2.142-.831.052-1.683-.018-2.489.187-6.47 1.633-13.068 1.22-19.643 1.348-6.909.136-13.801.172-20.695-.453-2.918-.264-5.749.871-8.68.929-14.083.279-28.098-.369-42.081-2.237-10.747-1.435-21.594-1.484-32.427-1.268-7.1.14-14.16-.097-21.105-1.783-1.058-.256-2.176-.354-3.227-.072-5.631 1.517-11.428.774-17.135 1.274-9.282.816-18.624.803-27.911 1.669-2.58.239-5.003 1.27-7.609 1.401-4.094.205-8.135-.518-12.116-1.111-3.483-.517-6.966-.91-10.413-.772-5.731.231-11.483.457-17.187 1.131-3.001.356-5.945.613-8.938-.009-1.452-.299-2.878-.482-3.881 1.262-.611 1.063-2.047.972-3.217.99-3.749.054-7.499 0-11.248.026-6.416.047-12.793.784-19.194 1.099-1.265.062-2.439.53-3.582 1.046-2.248 1.013-4.608 1.517-7.055 1.342-8.8-.631-17.622-.876-26.411-1.703-10.775-1.015-21.53-2.245-32.345-2.854-12.547-.707-25.102-1.241-37.646-1.992-23.353-1.404-46.678-3.12-69.933-5.785a364.329 364.329 0 0 0-11.236-1.098c-3.462.555-6.952.856-10.487.843-8.165-.033-16.347-.389-24.491.116-13.536.837-26.967 2.996-40.545 3.43-1.743.054-3.467.18-5.226.117-6.236-.222-12.471-.847-18.679-.954-6.539-.113-13.129.141-19.686.367-5.087.175-10.131-.103-15.153-.577-11.375.986-22.776 1.586-34.175 1.96-6.794.224-13.474.832-20.21 1.679-9.222 1.16-18.463 2.379-27.85 2.055-6.556-.225-13.147-.482-19.686-.368-6.208.107-12.443.733-18.679.957-1.759.063-3.483-.064-5.226-.118-13.578-.434-27.009-2.597-40.545-3.438-8.144-.504-16.326-.148-24.491-.116-4.779.02-9.477-.537-14.132-1.526-2.157-.458-4.265-.673-6.397.102-1.191.433-2.462.354-3.712.402-13.14.495-26.274 1.11-39.39 2.082-2.669.197-5.159 1.413-7.858 1.398-4.569-.025-9.11-.54-13.581-1.387-2.91-.552-5.837-.589-8.697-.472-5.898.239-11.818.441-17.684 1.166-2.838.351-5.615.514-8.444-.025-1.562-.298-3.197-.704-4.198 1.369-.427.888-1.754.819-2.757.848-2.416.069-4.834.083-7.248.021-7.759-.203-15.464.7-23.194 1.079-1.353.066-2.613.513-3.834 1.064-2.246 1.013-4.602 1.536-7.052 1.361-8.799-.63-17.621-.876-26.411-1.7-10.775-1.01-21.532-2.207-32.344-2.868-13.871-.848-27.751-1.567-41.625-2.308-23.792-1.273-47.482-3.541-71.17-5.993a601.335 601.335 0 0 0-5.827-.577c-5.393.831-10.845.948-16.321.839-10.833-.214-21.68-.167-32.427 1.266-13.983 1.864-27.999 2.51-42.081 2.233-2.931-.059-5.762-1.191-8.68-.928-6.894.623-13.786.587-20.695.452-5.009-.098-10.031.118-15-.496-.508.038-1.016.081-1.524.118-12.366.918-24.739 1.742-37.143 1.952-1.666.027-3.333.02-4.991-.2-.659-.088-1.341-.21-1.971.092-3.957 1.887-8.244 1.805-12.464 2.109-.995.071-2.018-.042-2.987.199-6.307 1.575-12.732 1.259-19.144 1.338-6.989.084-13.965.197-20.945-.431-3.49-.314-6.901.909-10.428.955-13.754.19-27.429-.531-41.077-2.357-12.165-1.63-24.439-1.279-36.681-1.178a69.19 69.19 0 0 1-15.373-1.615c-1.906-.417-3.786-.542-5.668.11-1.278.446-2.617.434-3.952.485-13.142.486-26.276 1.108-39.392 2.084-2.588.191-5.012 1.245-7.611 1.396-4.177.245-8.307-.472-12.367-1.103-3.486-.539-6.974-.925-10.415-.757-6.145.3-12.322.421-18.426 1.303-2.689.388-5.299.181-7.948-.224-1.324-.203-2.73-.586-3.565 1.251-.47 1.034-1.848.99-2.935 1.024-2.498.08-5 .086-7.498.025-7.676-.189-15.297.706-22.945 1.082-1.352.068-2.613.51-3.835 1.063-2.325 1.052-4.773 1.546-7.303 1.355-8.797-.663-17.62-.889-26.41-1.726-10.691-1.018-21.367-2.183-32.095-2.838-13.789-.844-27.588-1.48-41.378-2.293a1893.234 1893.234 0 0 1-39.859-2.744c-10.126-.812-20.207-2.179-30.324-3.125-2.429-.227-4.86-.438-7.291-.637-9.014 1.301-18.137.666-27.214.718-7.928.046-15.814.584-23.656 1.61-13.406 1.755-26.856 2.211-40.35 1.899-1.423-.033-2.817-.301-4.203-.592-.906-.187-1.784-.463-2.281-1.355-.188-.565-.173-1.151-.173-1.733v-2.881a6.37 6.37 0 0 1-.096-1.171C.02 40.582.006 24.069.022 7.555c.001-.415.008-.833.076-1.233V2.39C.098 1.564 0 .708.591.001h5076.817c.592.707.494 1.563.494 2.389v3.932c.068.4.075.818.076 1.233z"/>
</svg>
