<svg xmlns="http://www.w3.org/2000/svg" width="5078" height="74">
    <path fillRule="evenodd" fill="#FFF500" d="M5077.978 66.445c.015-16.514.002-33.028.02-49.54 0-.428-.03-.817-.096-1.169v-2.882c0-.582.015-1.169-.173-1.733-.497-.891-1.375-1.169-2.281-1.356-1.386-.289-2.78-.559-4.202-.592-13.495-.31-26.945.147-40.351 1.901a190.698 190.698 0 0 1-23.656 1.608c-9.077.052-18.2-.581-27.214.719a593.99 593.99 0 0 1-7.291-.638c-10.118-.944-20.198-2.312-30.323-3.124a1893.792 1893.792 0 0 0-39.86-2.744c-13.79-.813-27.589-1.45-41.378-2.292-10.728-.656-21.405-1.821-32.096-2.838-8.789-.838-17.612-1.063-26.409-1.727-2.53-.191-4.977.304-7.303 1.357-1.222.551-2.483.993-3.835 1.061-7.648.377-15.269 1.271-22.945 1.084-2.498-.062-5-.058-7.498.023-1.987.034-2.465-.009-2.935 1.023-.835 1.839-2.241 1.455-3.564 1.252-2.65-.406-5.261-.612-7.949-.224-6.104.882-12.281 1.002-18.426 1.305-3.441.167-6.929-.219-10.415-.76-4.06-.631-8.191-1.348-12.367-1.102-2.599.151-5.023 1.206-7.611 1.398-13.116.974-26.25 1.597-39.392 2.084-1.335.049-2.674.038-3.952.483-1.883.653-3.762.527-5.668.11a69.071 69.071 0 0 0-15.373-1.614c-12.242.1-24.516.45-36.682-1.179-13.647-1.827-27.322-2.546-41.076-2.358-3.527.048-6.938 1.27-10.428.956-6.98-.627-13.956-.514-20.945-.43-6.412.078-12.837-.237-19.144 1.337-.969.243-1.992.127-2.987.2-4.22.302-8.507.22-12.464 2.107-.63.302-1.312.181-1.971.094-1.658-.222-3.325-.228-4.991-.201-12.404.211-24.777 1.033-37.143 1.953-.508.036-1.016.078-1.524.116-4.969-.613-9.991-.397-15-.494-6.909-.137-13.801-.172-20.695.45-2.918.265-5.749-.869-8.68-.926-14.083-.279-28.098.369-42.081 2.231-10.747 1.434-21.594 1.483-32.427 1.267-5.476-.107-10.928.008-16.321.839a634.56 634.56 0 0 1-5.827-.577c-23.688-2.452-47.378-4.719-71.169-5.992-13.875-.742-27.755-1.462-41.626-2.309-10.812-.66-21.568-1.858-32.344-2.867-8.79-.825-17.612-1.071-26.411-1.699-2.451-.177-4.806.346-7.052 1.36-1.221.549-2.481.997-3.834 1.063-7.73.382-15.435 1.282-23.194 1.08-2.414-.064-4.832-.05-7.248.021-1.003.028-2.33-.041-2.758.846-1 2.075-2.635 1.668-4.197 1.37-2.829-.538-5.606-.375-8.444-.024-5.866.724-11.786.926-17.684 1.167-2.86.115-5.787.079-8.697-.473-4.471-.849-9.012-1.363-13.581-1.388-2.698-.015-5.189 1.201-7.858 1.399-13.116.971-26.25 1.585-39.391 2.082-1.249.048-2.52-.032-3.711.403-2.133.773-4.24.557-6.397.099-4.655-.987-9.353-1.543-14.132-1.525-8.165.034-16.347.389-24.491-.117-13.536-.839-26.967-3.004-40.545-3.436-1.743-.055-3.467-.182-5.226-.12-6.236.225-12.471.85-18.679.958-6.539.113-13.129-.141-19.686-.369-9.387-.323-18.628.896-27.85 2.055-6.736.848-13.416 1.455-20.21 1.681-11.399.374-22.8.972-34.175 1.958-5.022-.473-10.066-.751-15.153-.576-6.556.226-13.147.48-19.686.367-6.207-.107-12.443-.732-18.679-.954-1.759-.063-3.483.063-5.226.119-13.578.431-27.009 2.59-40.545 3.429-8.144.505-16.326.149-24.491.115-3.535-.014-7.025.288-10.487.842a364.02 364.02 0 0 1-11.236-1.097c-23.255-2.666-46.58-4.381-69.933-5.784-12.544-.753-25.099-1.287-37.646-1.993-10.815-.608-21.57-1.84-32.345-2.854-8.789-.828-17.611-1.072-26.411-1.703-2.446-.176-4.807.33-7.055 1.342-1.143.516-2.317.983-3.582 1.045-6.401.316-12.778 1.055-19.194 1.101-3.749.027-7.499-.029-11.248.027-1.17.017-2.606-.073-3.217.987-1.003 1.744-2.429 1.563-3.881 1.262-2.993-.621-5.937-.364-8.938-.009-5.704.675-11.456.901-17.187 1.131-3.447.139-6.93-.253-10.413-.771-3.981-.594-8.023-1.317-12.116-1.11-2.606.13-5.029 1.16-7.609 1.401-9.287.865-18.629.853-27.911 1.667-5.707.502-11.504-.241-17.135 1.275-1.051.282-2.169.184-3.227-.071-6.945-1.686-14.005-1.924-21.105-1.782-10.833.214-21.68.167-32.427-1.269-13.983-1.869-27.999-2.517-42.081-2.238-2.931.059-5.762 1.193-8.68.929-6.894-.623-13.786-.588-20.695-.454-6.575.13-13.173-.285-19.643 1.349-.805.205-1.658.135-2.489.187-4.391.267-8.837.196-12.958 2.144-.62.291-1.316.149-1.976.059-1.575-.213-3.158-.219-4.741-.196-12.489.194-24.944 1.033-37.394 1.956-.501.036-1.001.077-1.502.115-4.81-.597-9.669-.43-14.521-.489-6.989-.087-13.965-.199-20.945.429-3.49.313-6.901-.908-10.428-.956-13.753-.185-27.429.531-41.076 2.354-12.166 1.626-24.44 1.276-36.682 1.177a68.776 68.776 0 0 0-11.26.838 349.869 349.869 0 0 1-6.138-.581c-23.687-2.473-47.38-4.709-71.172-5.98-13.875-.74-27.754-1.462-41.626-2.306-10.729-.654-21.403-1.839-32.095-2.845-8.79-.829-17.612-1.062-26.41-1.718-2.533-.189-4.974.318-7.299 1.376-1.141.519-2.322.964-3.587 1.024-6.817.322-13.606 1.151-20.444 1.097-3.333-.028-6.666-.043-9.998.022-1.085.019-2.423-.073-3.01.885-1.138 1.858-2.718 1.653-4.356 1.318-2.742-.564-5.442-.342-8.195-.008-5.868.713-11.786.918-17.684 1.17-2.779.117-5.634.151-8.451-.438-4.303-.901-8.696-1.196-13.083-1.434-1.081-.059-2.175.009-3.228.294-6.663 1.792-13.537 1.702-20.331 2.132-10.116.638-20.279.53-30.346 1.959-.747.102-1.516.134-2.241-.045-10.835-2.696-21.876-1.754-32.85-1.817a189.945 189.945 0 0 1-23.656-1.612c-13.406-1.759-26.856-2.215-40.35-1.903-.59.012-1.174.067-2.655.147.319-.08-.265-.135-.854-.147-13.495-.312-26.945.144-40.351 1.903a189.932 189.932 0 0 1-23.656 1.612c-10.974.063-22.015-.879-32.85 1.817-.726.179-1.494.147-2.241.045-10.067-1.429-20.23-1.321-30.346-1.959-6.794-.43-13.668-.34-20.331-2.132-1.053-.285-2.147-.353-3.228-.294-4.386.238-8.78.533-13.083 1.434-2.817.589-5.672.555-8.451.438-5.898-.252-11.816-.457-17.685-1.17-2.752-.334-5.452-.556-8.194.008-1.638.335-3.218.54-4.356-1.318-.587-.958-1.925-.866-3.009-.885-3.333-.065-6.666-.05-9.999-.022-6.838.054-13.627-.775-20.443-1.097-1.267-.06-2.447-.505-3.588-1.024-2.324-1.058-4.766-1.565-7.299-1.376-8.798.656-17.62.889-26.41 1.718-10.692 1.006-21.366 2.191-32.095 2.845-13.871.844-27.751 1.566-41.626 2.306-23.792 1.271-47.485 3.507-71.172 5.98-2.044.213-4.09.404-6.138.581a68.776 68.776 0 0 0-11.26-.838c-12.242.099-24.516.449-36.682-1.177-13.647-1.823-27.322-2.539-41.076-2.354-3.527.048-6.938 1.269-10.428.956-6.98-.628-13.956-.516-20.945-.429-4.852.059-9.711-.108-14.521.489-.501-.038-1.002-.079-1.502-.115-12.45-.923-24.906-1.762-37.394-1.956-1.583-.023-3.166-.017-4.741.196-.66.09-1.356.232-1.976-.059-4.12-1.948-8.567-1.877-12.958-2.144-.831-.052-1.683.018-2.489-.187-6.47-1.634-13.068-1.219-19.643-1.349-6.909-.134-13.801-.169-20.695.454-2.918.264-5.749-.87-8.68-.929-14.083-.279-28.098.369-42.081 2.238-10.747 1.436-21.594 1.483-32.427 1.269-7.1-.142-14.16.096-21.105 1.782-1.058.255-2.176.353-3.227.071-5.631-1.516-11.428-.773-17.135-1.275-9.282-.814-18.624-.802-27.911-1.667-2.58-.241-5.003-1.271-7.609-1.401-4.094-.207-8.135.516-12.116 1.11-3.483.518-6.966.91-10.413.771-5.731-.23-11.483-.456-17.187-1.131-3.001-.355-5.945-.612-8.938.009-1.452.301-2.878.482-3.881-1.262-.611-1.06-2.047-.97-3.217-.987-3.749-.056-7.499 0-11.248-.027-6.416-.046-12.793-.785-19.194-1.101-1.265-.062-2.439-.529-3.582-1.045-2.248-1.012-4.608-1.518-7.055-1.342-8.8.631-17.622.875-26.411 1.703-10.775 1.014-21.53 2.246-32.345 2.854-12.547.706-25.102 1.24-37.646 1.993-23.353 1.403-46.678 3.118-69.933 5.784-3.739.428-7.485.785-11.236 1.097-3.462-.554-6.952-.856-10.487-.842-8.165.034-16.347.39-24.491-.115-13.536-.839-26.967-2.998-40.545-3.429-1.743-.056-3.467-.182-5.226-.119-6.236.222-12.471.847-18.679.954-6.539.113-13.129-.141-19.686-.367-5.087-.175-10.131.103-15.153.576-11.375-.986-22.776-1.584-34.175-1.958-6.794-.226-13.474-.833-20.21-1.681-9.222-1.159-18.463-2.378-27.85-2.055-6.556.228-13.147.482-19.686.369-6.208-.108-12.443-.733-18.679-.958-1.759-.062-3.483.065-5.226.12-13.578.432-27.009 2.597-40.545 3.436-8.144.506-16.326.151-24.491.117-4.779-.018-9.477.538-14.132 1.525-2.157.458-4.265.674-6.397-.099-1.191-.435-2.462-.355-3.712-.403-13.14-.497-26.274-1.111-39.39-2.082-2.669-.198-5.159-1.414-7.858-1.399-4.569.025-9.11.539-13.581 1.388-2.91.552-5.837.588-8.697.473-5.898-.241-11.818-.443-17.684-1.167-2.838-.351-5.615-.514-8.444.024-1.562.298-3.197.705-4.198-1.37-.427-.887-1.754-.818-2.757-.846a129.745 129.745 0 0 0-7.248-.021c-7.759.202-15.464-.698-23.194-1.08-1.353-.066-2.613-.514-3.834-1.063-2.246-1.014-4.602-1.537-7.052-1.36-8.799.628-17.621.874-26.411 1.699-10.775 1.009-21.532 2.207-32.344 2.867-13.871.847-27.751 1.567-41.625 2.309-23.792 1.273-47.482 3.54-71.17 5.992a634.56 634.56 0 0 1-5.827.577c-5.393-.831-10.845-.946-16.321-.839-10.833.216-21.68.167-32.427-1.267-13.983-1.862-27.999-2.51-42.081-2.231-2.931.057-5.762 1.191-8.68.926-6.894-.622-13.786-.587-20.695-.45-5.009.097-10.031-.119-15 .494-.508-.038-1.016-.08-1.524-.116-12.366-.92-24.739-1.742-37.143-1.953-1.666-.027-3.333-.021-4.991.201-.659.087-1.341.208-1.971-.094-3.957-1.887-8.244-1.805-12.464-2.107-.995-.073-2.018.043-2.987-.2-6.307-1.574-12.732-1.259-19.144-1.337-6.989-.084-13.965-.197-20.945.43-3.49.314-6.901-.908-10.428-.956-13.754-.188-27.429.531-41.077 2.358-12.165 1.629-24.439 1.279-36.681 1.179a69.071 69.071 0 0 0-15.373 1.614c-1.906.417-3.786.543-5.668-.11-1.278-.445-2.617-.434-3.952-.483-13.142-.487-26.276-1.11-39.392-2.084-2.588-.192-5.012-1.247-7.611-1.398-4.177-.246-8.307.471-12.367 1.102-3.486.541-6.974.927-10.415.76-6.145-.303-12.322-.423-18.426-1.305-2.689-.388-5.299-.182-7.948.224-1.324.203-2.73.587-3.565-1.252-.47-1.032-1.848-.989-2.935-1.023-2.498-.081-5-.085-7.498-.023-7.676.187-15.297-.707-22.945-1.084-1.352-.068-2.613-.51-3.835-1.061-2.325-1.053-4.773-1.548-7.303-1.357-8.797.664-17.62.889-26.41 1.727-10.691 1.017-21.367 2.182-32.095 2.838-13.789.842-27.588 1.479-41.378 2.292a1893.234 1893.234 0 0 0-39.859 2.744c-10.126.812-20.207 2.18-30.324 3.124-2.429.228-4.86.44-7.291.638-9.014-1.3-18.137-.667-27.214-.719a190.71 190.71 0 0 1-23.656-1.608C33.699 9.32 20.249 8.863 6.755 9.173c-1.423.033-2.817.303-4.203.592-.906.187-1.784.465-2.281 1.356-.188.564-.173 1.151-.173 1.733v2.882a6.37 6.37 0 0 0-.096 1.169c.018 16.512.004 33.026.02 49.54.001.417.008.832.076 1.232v3.932c0 .826-.098 1.684.493 2.392h5076.817c.592-.708.494-1.566.494-2.392v-3.932c.068-.4.075-.815.076-1.232z"/>
</svg>
