<svg xmlns="http://www.w3.org/2000/svg" width="5078" height="74">
    <path fillRule="evenodd" fill="#F9F8F3" d="M5077.978 7.563c.015 16.514.002 33.026.02 49.539 0 .429-.03.818-.096 1.17v2.883c0 .58.015 1.167-.173 1.733-.497.89-1.375 1.166-2.281 1.354-1.386.291-2.78.559-4.202.591-13.495.311-26.945-.145-40.351-1.898a190.699 190.699 0 0 0-23.656-1.609c-9.077-.052-18.2.582-27.214-.72-2.431.2-4.862.411-7.291.638-10.118.946-20.198 2.313-30.323 3.124a1893.798 1893.798 0 0 1-39.86 2.745c-13.79.814-27.589 1.45-41.378 2.292-10.728.656-21.405 1.821-32.096 2.838-8.789.837-17.612 1.063-26.409 1.726-2.53.192-4.977-.301-7.303-1.355-1.222-.553-2.483-.994-3.835-1.061-7.648-.378-15.269-1.273-22.945-1.085-2.498.061-5 .057-7.498-.022-1.987-.035-2.465.009-2.935-1.025-.835-1.837-2.241-1.454-3.564-1.251-2.65.407-5.261.612-7.949.225-6.104-.882-12.281-1.003-18.426-1.305-3.441-.169-6.929.217-10.415.759-4.06.629-8.191 1.347-12.367 1.103-2.599-.153-5.023-1.207-7.611-1.399-13.116-.974-26.25-1.597-39.392-2.083-1.335-.049-2.674-.039-3.952-.483-1.883-.654-3.762-.528-5.668-.111a69.13 69.13 0 0 1-15.373 1.614c-12.242-.102-24.516-.452-36.682 1.178-13.647 1.827-27.322 2.546-41.076 2.36-3.527-.048-6.938-1.272-10.428-.957-6.98.629-13.956.515-20.945.43-6.412-.078-12.837.238-19.144-1.338-.969-.24-1.992-.126-2.987-.197-4.22-.305-8.507-.222-12.464-2.112-.63-.299-1.312-.179-1.971-.09-1.658.221-3.325.227-4.991.199-12.404-.21-24.777-1.034-37.143-1.952-.508-.037-1.016-.077-1.524-.117-4.969.613-9.991.398-15 .496-6.909.136-13.801.171-20.695-.451-2.918-.264-5.749.868-8.68.925-14.083.279-28.098-.368-42.081-2.231-10.747-1.433-21.594-1.48-32.427-1.266-5.476.108-10.928-.009-16.321-.839-1.943.183-3.885.375-5.827.577-23.688 2.452-47.378 4.719-71.169 5.991-13.875.742-27.755 1.463-41.626 2.31-10.812.66-21.568 1.858-32.344 2.867-8.79.825-17.612 1.071-26.411 1.699-2.451.175-4.806-.346-7.052-1.359-1.221-.551-2.481-.998-3.834-1.064-7.73-.381-15.435-1.282-23.194-1.08-2.414.063-4.832.049-7.248-.02-1.003-.029-2.33.041-2.758-.847-1-2.074-2.635-1.667-4.197-1.37-2.829.538-5.606.376-8.444.025-5.866-.724-11.786-.927-17.684-1.167-2.86-.116-5.787-.08-8.697.473-4.471.846-9.012 1.363-13.581 1.388-2.698.015-5.189-1.202-7.858-1.4-13.116-.971-26.25-1.587-39.39-2.081-1.25-.048-2.521.03-3.712-.402-2.133-.775-4.24-.56-6.397-.103-4.655.989-9.353 1.547-14.132 1.526-8.165-.033-16.347-.388-24.491.115-13.536.841-26.967 3.006-40.545 3.439-1.743.055-3.467.182-5.226.119-6.236-.224-12.471-.848-18.679-.957-6.539-.113-13.129.143-19.686.367-9.387.324-18.628-.894-27.85-2.054-6.736-.848-13.416-1.456-20.21-1.679-11.399-.375-22.8-.975-34.175-1.96-5.022.475-10.066.753-15.153.577-6.556-.227-13.147-.481-19.686-.367-6.207.107-12.443.731-18.679.954-1.759.062-3.483-.062-5.226-.118-13.578-.433-27.009-2.592-40.545-3.43-8.144-.505-16.326-.149-24.491-.115-3.535.014-7.025-.287-10.487-.845-3.751.315-7.498.67-11.236 1.099-23.255 2.668-46.58 4.382-69.933 5.784-12.544.754-25.099 1.287-37.646 1.994-10.815.61-21.57 1.84-32.345 2.854-8.789.827-17.611 1.071-26.41 1.703-2.447.174-4.808-.329-7.056-1.343-1.143-.515-2.317-.982-3.582-1.044-6.401-.316-12.778-1.055-19.194-1.1-3.749-.027-7.499.028-11.248-.027-1.17-.017-2.606.072-3.217-.99-1.003-1.742-2.429-1.561-3.881-1.259-2.993.619-5.937.364-8.938.008-5.704-.674-11.456-.902-17.187-1.132-3.447-.138-6.93.254-10.413.773-3.981.592-8.023 1.315-12.116 1.11-2.606-.132-5.029-1.162-7.609-1.401-9.287-.867-18.629-.855-27.911-1.67-5.707-.5-11.504.243-17.135-1.272-1.051-.282-2.169-.186-3.227.071-6.945 1.684-14.005 1.923-21.105 1.783-10.833-.216-21.68-.169-32.427 1.267-13.983 1.868-27.999 2.517-42.081 2.238-2.931-.059-5.762-1.193-8.68-.928-6.894.623-13.786.588-20.695.452-6.575-.128-13.173.284-19.643-1.35-.805-.202-1.658-.134-2.489-.184-4.391-.27-8.837-.198-12.958-2.143-.62-.294-1.316-.152-1.976-.061-1.575.213-3.158.219-4.741.195-12.488-.192-24.944-1.033-37.394-1.955l-1.502-.115c-4.81.596-9.669.431-14.521.491-6.989.083-13.965.196-20.945-.429-3.49-.314-6.901.905-10.428.952-13.753.188-27.429-.528-41.076-2.352-12.166-1.627-24.44-1.277-36.682-1.177a68.556 68.556 0 0 1-11.26-.839c-2.048.177-4.094.369-6.138.583-23.687 2.474-47.38 4.709-71.172 5.977-13.875.742-27.754 1.464-41.626 2.309-10.729.654-21.403 1.837-32.095 2.845-8.79.828-17.612 1.061-26.41 1.717-2.533.189-4.974-.318-7.299-1.376-1.141-.519-2.322-.965-3.587-1.024-6.817-.323-13.606-1.15-20.444-1.096-3.333.025-6.666.042-9.998-.021-1.085-.022-2.423.071-3.01-.888-1.138-1.857-2.718-1.652-4.356-1.316-2.742.563-5.442.341-8.195.008-5.868-.712-11.786-.92-17.684-1.171-2.779-.117-5.634-.152-8.451.437-4.303.902-8.696 1.197-13.083 1.436-1.081.059-2.175-.009-3.228-.293-6.663-1.793-13.537-1.704-20.331-2.134-10.116-.639-20.279-.531-30.346-1.959-.747-.105-1.515-.135-2.241.044-10.835 2.696-21.876 1.755-32.85 1.819-7.928.045-15.814.583-23.656 1.611-13.406 1.759-26.856 2.215-40.35 1.903-.59-.013-1.174-.067-2.655-.146.319.079-.265.133-.854.146-13.495.312-26.945-.144-40.351-1.903a190.123 190.123 0 0 0-23.656-1.611c-10.974-.064-22.015.877-32.85-1.819-.726-.179-1.494-.149-2.241-.044-10.067 1.428-20.23 1.32-30.346 1.959-6.794.43-13.668.341-20.331 2.134-1.053.284-2.147.352-3.228.293-4.386-.239-8.78-.534-13.083-1.436-2.817-.589-5.672-.554-8.451-.437-5.898.251-11.816.459-17.685 1.171-2.752.333-5.452.555-8.194-.008-1.638-.336-3.218-.541-4.356 1.316-.587.959-1.925.866-3.009.888-3.333.063-6.666.046-9.999.021-6.838-.054-13.627.773-20.443 1.096-1.267.059-2.447.505-3.588 1.024-2.324 1.058-4.766 1.565-7.299 1.376-8.798-.656-17.62-.889-26.41-1.717-10.692-1.008-21.366-2.191-32.095-2.845-13.871-.845-27.751-1.567-41.626-2.309-23.792-1.268-47.485-3.503-71.172-5.977-2.044-.214-4.09-.406-6.138-.583a68.556 68.556 0 0 1-11.26.839c-12.242-.1-24.516-.45-36.682 1.177-13.647 1.824-27.322 2.54-41.076 2.352-3.527-.047-6.938-1.266-10.428-.952-6.98.625-13.956.512-20.945.429-4.852-.06-9.711.105-14.521-.491l-1.502.115c-12.45.922-24.906 1.763-37.394 1.955-1.583.024-3.166.018-4.741-.195-.66-.091-1.356-.233-1.976.061-4.12 1.945-8.567 1.873-12.958 2.143-.831.05-1.683-.018-2.489.184-6.47 1.634-13.068 1.222-19.643 1.35-6.909.136-13.801.171-20.695-.452-2.918-.265-5.749.869-8.68.928-14.083.279-28.098-.37-42.081-2.238-10.747-1.436-21.594-1.483-32.427-1.267-7.1.14-14.16-.099-21.105-1.783-1.058-.257-2.176-.353-3.227-.071-5.631 1.515-11.428.772-17.135 1.272-9.282.815-18.624.803-27.911 1.67-2.58.239-5.003 1.269-7.609 1.401-4.093.205-8.135-.518-12.116-1.11-3.483-.519-6.966-.911-10.413-.773-5.731.23-11.483.458-17.187 1.132-3.001.356-5.945.611-8.938-.008-1.452-.302-2.878-.483-3.88 1.259-.612 1.062-2.048.973-3.218.99-3.749.055-7.499 0-11.248.027-6.416.045-12.793.784-19.194 1.1-1.265.062-2.439.529-3.582 1.044-2.248 1.014-4.608 1.517-7.055 1.343-8.8-.632-17.622-.876-26.411-1.703-10.775-1.014-21.53-2.244-32.345-2.854-12.547-.707-25.102-1.24-37.646-1.994-23.353-1.402-46.678-3.116-69.933-5.784a370.66 370.66 0 0 0-11.236-1.099c-3.462.558-6.952.859-10.487.845-8.165-.034-16.347-.39-24.491.115-13.536.838-26.967 2.997-40.545 3.43-1.743.056-3.467.18-5.226.118-6.236-.223-12.471-.847-18.679-.954-6.539-.114-13.129.14-19.686.367-5.087.176-10.131-.102-15.153-.577-11.375.985-22.776 1.585-34.175 1.96-6.794.223-13.474.831-20.21 1.679-9.222 1.16-18.463 2.378-27.85 2.054-6.556-.224-13.147-.48-19.686-.367-6.207.109-12.443.733-18.679.957-1.759.063-3.483-.064-5.226-.119-13.578-.433-27.009-2.598-40.545-3.439-8.144-.503-16.326-.148-24.491-.115-4.779.021-9.477-.537-14.132-1.526-2.157-.457-4.265-.672-6.397.103-1.191.432-2.462.354-3.712.402-13.14.494-26.274 1.11-39.39 2.081-2.669.198-5.159 1.415-7.858 1.4-4.569-.025-9.11-.542-13.581-1.388-2.91-.553-5.837-.589-8.697-.473-5.898.24-11.818.443-17.684 1.167-2.838.351-5.615.513-8.444-.025-1.562-.297-3.197-.704-4.198 1.37-.427.888-1.754.818-2.757.847-2.416.069-4.834.083-7.248.02-7.759-.202-15.464.699-23.194 1.08-1.353.066-2.613.513-3.834 1.064-2.246 1.013-4.602 1.534-7.052 1.359-8.799-.628-17.621-.874-26.411-1.699-10.775-1.009-21.532-2.207-32.344-2.867-13.871-.847-27.751-1.568-41.625-2.31-23.792-1.272-47.482-3.539-71.17-5.991a601.335 601.335 0 0 0-5.827-.577c-5.393.83-10.845.947-16.321.839-10.833-.214-21.68-.167-32.427 1.266-13.983 1.863-27.999 2.51-42.081 2.231-2.931-.057-5.762-1.189-8.68-.925-6.894.622-13.786.587-20.695.451-5.009-.098-10.031.117-15-.496-.508.04-1.016.08-1.524.117-12.366.918-24.739 1.742-37.143 1.952-1.666.028-3.333.022-4.991-.199-.659-.089-1.341-.209-1.971.09-3.957 1.89-8.244 1.807-12.464 2.112-.995.071-2.018-.043-2.987.197-6.307 1.576-12.732 1.26-19.144 1.338-6.989.085-13.965.199-20.945-.43-3.49-.315-6.901.909-10.428.957-13.753.186-27.429-.533-41.076-2.36-12.166-1.63-24.44-1.28-36.682-1.178a69.13 69.13 0 0 1-15.373-1.614c-1.906-.417-3.786-.543-5.668.111-1.278.444-2.617.434-3.952.483-13.142.486-26.276 1.109-39.392 2.083-2.588.192-5.012 1.246-7.611 1.399-4.177.244-8.307-.474-12.367-1.103-3.486-.542-6.974-.928-10.415-.759-6.145.302-12.322.423-18.426 1.305-2.688.387-5.299.182-7.948-.225-1.324-.203-2.73-.586-3.565 1.251-.47 1.034-1.848.99-2.935 1.025-2.498.079-5 .083-7.498.022-7.676-.188-15.297.707-22.945 1.085-1.352.067-2.613.508-3.835 1.061-2.325 1.054-4.773 1.547-7.303 1.355-8.797-.663-17.62-.889-26.409-1.726-10.692-1.017-21.368-2.182-32.096-2.838-13.789-.842-27.588-1.478-41.378-2.292a1893.24 1893.24 0 0 1-39.859-2.745c-10.126-.811-20.207-2.178-30.324-3.124-2.429-.227-4.86-.438-7.291-.638-9.014 1.302-18.137.668-27.214.72-7.928.046-15.814.583-23.656 1.609-13.406 1.753-26.856 2.209-40.35 1.898-1.423-.032-2.817-.3-4.203-.591-.906-.188-1.784-.464-2.281-1.354-.188-.566-.173-1.153-.173-1.733v-2.883a6.374 6.374 0 0 1-.096-1.17C.02 40.589.006 24.077.022 7.563c.001-.416.008-.833.076-1.234V2.397C.098 1.573 0 .716.591.008h5076.817c.592.708.494 1.565.494 2.389v3.932c.068.401.075.818.076 1.234z"/>
</svg>
