<svg xmlns="http://www.w3.org/2000/svg" width="5078" height="75">
    <path fillRule="evenodd" fill="#F9F8F3" d="M5077.978 67.156c.015-16.513.002-33.026.02-49.541 0-.428-.03-.817-.096-1.168v-2.882c0-.582.015-1.168-.173-1.733-.497-.891-1.375-1.168-2.281-1.356-1.386-.289-2.78-.558-4.202-.591-13.495-.311-26.945.145-40.351 1.899a190.699 190.699 0 0 1-23.656 1.609c-9.077.052-18.2-.581-27.214.719a636.153 636.153 0 0 1-7.291-.638c-10.118-.945-20.198-2.313-30.323-3.123-13.274-1.064-26.562-1.961-39.86-2.746-13.79-.813-27.589-1.448-41.378-2.292-10.728-.654-21.405-1.819-32.096-2.838-8.789-.835-17.612-1.063-26.409-1.725-2.53-.192-4.977.302-7.303 1.355-1.222.551-2.483.995-3.835 1.061-7.648.377-15.269 1.272-22.945 1.084-2.498-.06-5-.055-7.498.024-1.987.035-2.465-.009-2.935 1.025-.835 1.836-2.241 1.454-3.564 1.249-2.65-.406-5.261-.61-7.949-.223-6.104.881-12.281 1.002-18.426 1.304-3.441.168-6.929-.218-10.415-.759-4.06-.631-8.191-1.348-12.367-1.103-2.599.153-5.023 1.207-7.611 1.398-13.116.975-26.25 1.598-39.392 2.084-1.335.049-2.674.038-3.952.483-1.883.654-3.762.528-5.668.112a69.014 69.014 0 0 0-15.373-1.616c-12.242.101-24.516.451-36.682-1.177-13.647-1.827-27.322-2.547-41.076-2.36-3.527.048-6.938 1.273-10.428.958-6.98-.629-13.956-.516-20.945-.431-6.412.078-12.837-.238-19.144 1.336-.969.243-1.992.129-2.987.2-4.22.303-8.507.221-12.464 2.11-.63.3-1.312.178-1.971.091-1.658-.222-3.325-.228-4.991-.2-12.404.21-24.777 1.034-37.143 1.952-.508.038-1.016.078-1.524.118-4.969-.613-9.991-.398-15-.496-6.909-.135-13.801-.172-20.695.451-2.918.265-5.749-.867-8.68-.926-14.083-.279-28.098.369-42.081 2.232-10.747 1.433-21.594 1.481-32.427 1.265-5.476-.107-10.928.008-16.321.84a571.441 571.441 0 0 1-5.827-.578c-23.688-2.452-47.378-4.719-71.169-5.992-13.875-.742-27.755-1.461-41.626-2.309-10.812-.659-21.568-1.857-32.344-2.867-8.79-.823-17.612-1.069-26.411-1.699-2.451-.175-4.806.346-7.052 1.36-1.221.549-2.481.998-3.834 1.065-7.73.38-15.435 1.28-23.194 1.078a133.705 133.705 0 0 0-7.248.021c-1.003.03-2.33-.04-2.758.846-1 2.075-2.635 1.668-4.197 1.37-2.829-.537-5.606-.375-8.444-.023-5.866.723-11.786.926-17.684 1.166-2.86.116-5.787.08-8.697-.473-4.471-.847-9.012-1.363-13.581-1.388-2.698-.014-5.189 1.203-7.858 1.4-13.116.971-26.25 1.586-39.39 2.081-1.25.048-2.521-.031-3.712.403-2.133.773-4.24.559-6.397.1-4.655-.986-9.353-1.544-14.132-1.525-8.165.033-16.347.388-24.491-.115-13.536-.842-26.967-3.006-40.545-3.439-1.743-.054-3.467-.18-5.226-.117-6.236.222-12.471.848-18.679.955-6.539.114-13.129-.141-19.686-.368-9.387-.323-18.628.896-27.85 2.056-6.736.847-13.416 1.456-20.21 1.679-11.399.374-22.8.975-34.175 1.959-5.022-.474-10.066-.752-15.153-.576-6.556.225-13.147.48-19.686.367-6.207-.108-12.443-.73-18.679-.955-1.759-.061-3.483.063-5.226.119-13.578.433-27.009 2.593-40.545 3.429-8.144.505-16.326.149-24.491.115-3.535-.014-7.025.288-10.487.845a360.953 360.953 0 0 1-11.236-1.099c-23.255-2.667-46.58-4.382-69.933-5.785-12.544-.753-25.099-1.285-37.646-1.992-10.815-.609-21.57-1.84-32.345-2.853-8.789-.828-17.611-1.073-26.41-1.705-2.447-.173-4.808.331-7.056 1.343-1.143.515-2.317.984-3.582 1.046-6.401.316-12.778 1.054-19.194 1.099-3.749.027-7.499-.028-11.248.027-1.17.017-2.606-.072-3.217.99-1.003 1.742-2.429 1.562-3.881 1.259-2.993-.619-5.937-.363-8.938-.008-5.704.674-11.456.901-17.187 1.131-3.447.139-6.93-.253-10.413-.772-3.981-.592-8.023-1.315-12.116-1.11-2.606.13-5.029 1.16-7.609 1.401-9.287.866-18.629.853-27.911 1.669-5.707.5-11.504-.243-17.135 1.273-1.051.283-2.169.186-3.227-.071-6.945-1.685-14.005-1.922-21.105-1.782-10.833.215-21.68.168-32.427-1.268-13.983-1.87-27.999-2.516-42.081-2.239-2.931.059-5.762 1.195-8.68.929-6.894-.623-13.786-.588-20.695-.452-6.575.128-13.173-.285-19.643 1.348-.805.204-1.658.135-2.489.186-4.391.27-8.837.196-12.958 2.144-.62.292-1.316.149-1.976.061-1.575-.215-3.158-.22-4.741-.197-12.488.193-24.944 1.032-37.394 1.956l-1.502.115c-4.81-.595-9.669-.43-14.521-.49-6.989-.084-13.965-.199-20.945.429-3.49.314-6.901-.907-10.428-.954-13.753-.187-27.429.529-41.076 2.352-12.166 1.627-24.44 1.277-36.682 1.177a68.667 68.667 0 0 0-11.26.84 340.529 340.529 0 0 1-6.138-.583c-23.687-2.473-47.38-4.709-71.172-5.979-13.875-.741-27.754-1.462-41.626-2.307-10.729-.654-21.403-1.838-32.095-2.845-8.79-.827-17.612-1.061-26.41-1.718-2.533-.188-4.974.318-7.299 1.376-1.141.519-2.322.965-3.587 1.025-6.817.322-13.606 1.15-20.444 1.096-3.333-.026-6.666-.042-9.998.022-1.085.02-2.423-.071-3.01.886-1.138 1.858-2.718 1.653-4.356 1.317-2.742-.563-5.442-.342-8.195-.008-5.868.713-11.786.92-17.684 1.17-2.779.119-5.634.154-8.451-.437-4.303-.901-8.696-1.195-13.083-1.435-1.081-.058-2.175.009-3.228.294-6.663 1.792-13.537 1.703-20.331 2.132-10.116.639-20.279.53-30.346 1.959-.747.105-1.515.135-2.241-.045-10.835-2.695-21.876-1.753-32.85-1.817a189.944 189.944 0 0 1-23.656-1.611c-13.406-1.758-26.856-2.215-40.35-1.904-.59.012-1.174.069-2.655.148.319-.079-.265-.136-.854-.148-13.495-.311-26.945.146-40.351 1.904a189.931 189.931 0 0 1-23.656 1.611c-10.974.064-22.015-.878-32.85 1.817-.726.18-1.494.15-2.241.045-10.067-1.429-20.23-1.32-30.346-1.959-6.794-.429-13.668-.34-20.331-2.132-1.053-.285-2.147-.352-3.228-.294-4.386.24-8.78.534-13.083 1.435-2.817.591-5.672.556-8.451.437-5.898-.25-11.816-.457-17.685-1.17-2.752-.334-5.452-.555-8.194.008-1.638.336-3.218.541-4.356-1.317-.587-.957-1.925-.866-3.009-.886-3.333-.064-6.666-.048-9.999-.022-6.838.054-13.627-.774-20.443-1.096-1.267-.06-2.447-.506-3.588-1.025-2.324-1.058-4.766-1.564-7.299-1.376-8.798.657-17.62.891-26.41 1.718-10.692 1.007-21.366 2.191-32.095 2.845-13.871.845-27.751 1.566-41.626 2.307-23.792 1.27-47.485 3.506-71.172 5.979-2.044.215-4.09.405-6.138.583a68.667 68.667 0 0 0-11.26-.84c-12.242.1-24.516.45-36.682-1.177-13.647-1.823-27.322-2.539-41.076-2.352-3.527.047-6.938 1.268-10.428.954-6.98-.628-13.956-.513-20.945-.429-4.852.06-9.711-.105-14.521.49l-1.502-.115c-12.45-.924-24.906-1.763-37.394-1.956-1.583-.023-3.166-.018-4.741.197-.66.088-1.356.231-1.976-.061-4.12-1.948-8.567-1.874-12.958-2.144-.831-.051-1.683.018-2.489-.186-6.47-1.633-13.068-1.22-19.643-1.348-6.909-.136-13.801-.171-20.695.452-2.918.266-5.749-.87-8.68-.929-14.083-.277-28.098.369-42.081 2.239-10.747 1.436-21.594 1.483-32.427 1.268-7.1-.14-14.16.097-21.105 1.782-1.058.257-2.176.354-3.227.071-5.631-1.516-11.428-.773-17.135-1.273-9.282-.816-18.624-.803-27.911-1.669-2.58-.241-5.003-1.271-7.609-1.401-4.093-.205-8.135.518-12.116 1.11-3.483.519-6.966.911-10.413.772-5.731-.23-11.483-.457-17.187-1.131-3.001-.355-5.945-.611-8.938.008-1.452.303-2.878.483-3.88-1.259-.612-1.062-2.048-.973-3.218-.99-3.749-.055-7.499 0-11.248-.027-6.416-.045-12.793-.783-19.194-1.099-1.265-.062-2.439-.531-3.582-1.046-2.248-1.012-4.608-1.516-7.055-1.343-8.8.632-17.622.877-26.411 1.705-10.775 1.013-21.53 2.244-32.345 2.853-12.547.707-25.102 1.239-37.646 1.992-23.353 1.403-46.678 3.118-69.933 5.785-3.739.431-7.485.785-11.236 1.099-3.462-.557-6.952-.859-10.487-.845-8.165.034-16.347.39-24.491-.115-13.536-.836-26.967-2.996-40.545-3.429-1.743-.056-3.467-.18-5.226-.119-6.236.225-12.471.847-18.679.955-6.539.113-13.129-.142-19.686-.367-5.087-.176-10.131.102-15.153.576-11.375-.984-22.776-1.585-34.175-1.959-6.794-.223-13.474-.832-20.21-1.679-9.222-1.16-18.463-2.379-27.85-2.056-6.556.227-13.147.482-19.686.368-6.207-.107-12.443-.733-18.679-.955-1.759-.063-3.483.063-5.226.117-13.578.433-27.009 2.597-40.545 3.439-8.144.503-16.326.148-24.491.115-4.779-.019-9.477.539-14.132 1.525-2.157.459-4.265.673-6.397-.1-1.191-.434-2.462-.355-3.712-.403-13.14-.495-26.274-1.11-39.39-2.081-2.669-.197-5.159-1.414-7.858-1.4-4.569.025-9.11.541-13.581 1.388-2.91.553-5.837.589-8.697.473-5.898-.24-11.818-.443-17.684-1.166-2.838-.352-5.615-.514-8.444.023-1.562.298-3.197.705-4.198-1.37-.427-.886-1.754-.816-2.757-.846a133.705 133.705 0 0 0-7.248-.021c-7.759.202-15.464-.698-23.194-1.078-1.353-.067-2.613-.516-3.834-1.065-2.246-1.014-4.602-1.535-7.052-1.36-8.799.63-17.621.876-26.411 1.699-10.775 1.01-21.532 2.208-32.344 2.867-13.871.848-27.751 1.567-41.625 2.309-23.792 1.273-47.482 3.54-71.17 5.992-1.942.203-3.884.395-5.827.578-5.393-.832-10.845-.947-16.321-.84-10.833.216-21.68.168-32.427-1.265-13.983-1.863-27.999-2.511-42.081-2.232-2.931.059-5.762 1.191-8.68.926-6.894-.623-13.786-.586-20.695-.451-5.009.098-10.031-.117-15 .496-.508-.04-1.016-.08-1.524-.118-12.366-.918-24.739-1.742-37.143-1.952-1.666-.028-3.333-.022-4.991.2-.659.087-1.341.209-1.971-.091-3.957-1.889-8.244-1.807-12.464-2.11-.995-.071-2.018.043-2.987-.2-6.307-1.574-12.732-1.258-19.144-1.336-6.989-.085-13.965-.198-20.945.431-3.49.315-6.901-.91-10.428-.958-13.753-.187-27.429.533-41.076 2.36-12.166 1.628-24.44 1.278-36.682 1.177a69.014 69.014 0 0 0-15.373 1.616c-1.906.416-3.786.542-5.668-.112-1.278-.445-2.617-.434-3.952-.483-13.142-.486-26.276-1.109-39.392-2.084-2.588-.191-5.012-1.245-7.611-1.398-4.177-.245-8.307.472-12.367 1.103-3.486.541-6.974.927-10.415.759-6.145-.302-12.322-.423-18.426-1.304-2.688-.387-5.299-.183-7.948.223-1.324.205-2.73.587-3.565-1.249-.47-1.034-1.848-.99-2.935-1.025-2.498-.079-5-.084-7.498-.024-7.676.188-15.297-.707-22.945-1.084-1.352-.066-2.613-.51-3.835-1.061-2.325-1.053-4.773-1.547-7.303-1.355-8.797.662-17.62.89-26.409 1.725-10.692 1.019-21.368 2.184-32.096 2.838-13.789.844-27.588 1.479-41.378 2.292-13.298.785-26.586 1.682-39.859 2.746-10.126.81-20.207 2.178-30.324 3.123-2.429.227-4.86.439-7.291.638-9.014-1.3-18.137-.667-27.214-.719a190.712 190.712 0 0 1-23.656-1.609c-13.406-1.754-26.856-2.21-40.35-1.899-1.423.033-2.817.302-4.203.591-.906.188-1.784.465-2.281 1.356-.188.565-.173 1.151-.173 1.733v2.882c-.066.351-.096.74-.096 1.168.018 16.515.004 33.028.02 49.541.001.416.008.832.076 1.233v3.931c0 .826-.098 1.683.493 2.391h5076.817c.592-.708.494-1.565.494-2.391v-3.931c.068-.401.075-.817.076-1.233z"/>
</svg>
