<svg xmlns="http://www.w3.org/2000/svg" width="5078" height="74">
    <path fill-rule="evenodd" fill="#F9F8F3" d="M5077.978 7.556c.015 16.513.002 33.025.02 49.538 0 .43-.03.819-.096 1.171v2.881c0 .582.015 1.168-.173 1.731-.497.893-1.375 1.17-2.281 1.357-1.386.291-2.78.56-4.202.592-13.495.311-26.945-.146-40.351-1.899a190.699 190.699 0 0 0-23.656-1.609c-9.077-.051-18.2.582-27.214-.719-2.431.199-4.862.411-7.291.637-10.118.946-20.198 2.314-30.323 3.125a1900.545 1900.545 0 0 1-39.86 2.745c-13.79.813-27.589 1.448-41.378 2.291-10.728.656-21.405 1.82-32.096 2.838-8.789.837-17.612 1.064-26.409 1.726-2.53.193-4.977-.301-7.303-1.355-1.222-.553-2.483-.995-3.835-1.061-7.648-.377-15.269-1.272-22.945-1.084a132 132 0 0 1-7.498-.024c-1.987-.033-2.465.01-2.935-1.024-.835-1.838-2.241-1.453-3.564-1.252-2.65.407-5.261.613-7.949.226-6.104-.883-12.281-1.002-18.426-1.306-3.441-.166-6.929.219-10.415.76-4.06.631-8.191 1.348-12.367 1.102-2.599-.152-5.023-1.206-7.611-1.397-13.116-.974-26.25-1.598-39.392-2.083-1.335-.051-2.674-.04-3.952-.483-1.883-.655-3.762-.529-5.668-.113a69.073 69.073 0 0 1-15.373 1.616c-12.242-.101-24.516-.451-36.682 1.176-13.647 1.829-27.322 2.548-41.076 2.361-3.527-.047-6.938-1.271-10.428-.957-6.98.628-13.956.514-20.945.43-6.412-.077-12.837.237-19.144-1.337-.969-.242-1.992-.128-2.987-.199-4.22-.304-8.507-.222-12.464-2.11-.63-.3-1.312-.179-1.971-.09-1.658.221-3.325.227-4.991.198-12.404-.21-24.777-1.033-37.143-1.952-.508-.037-1.016-.078-1.524-.116-4.969.612-9.991.397-15 .495-6.909.136-13.801.172-20.695-.451-2.918-.264-5.749.868-8.68.926-14.083.277-28.098-.369-42.081-2.233-10.747-1.43-21.594-1.48-32.427-1.265-5.476.108-10.928-.008-16.321-.838-1.943.184-3.885.373-5.827.575-23.688 2.454-47.378 4.72-71.169 5.993-13.875.743-27.755 1.463-41.626 2.309-10.812.661-21.568 1.858-32.344 2.867-8.79.825-17.612 1.071-26.411 1.699-2.451.176-4.806-.346-7.052-1.359-1.221-.55-2.481-.997-3.834-1.064-7.73-.38-15.435-1.282-23.194-1.079-2.414.062-4.832.048-7.248-.022-1.003-.028-2.33.042-2.758-.844-1-2.076-2.635-1.67-4.197-1.372-2.829.538-5.606.376-8.444.025-5.866-.725-11.786-.926-17.684-1.168-2.86-.113-5.787-.079-8.697.474-4.471.847-9.012 1.363-13.581 1.387-2.698.016-5.189-1.2-7.858-1.399-13.116-.97-26.25-1.585-39.391-2.081-1.249-.048-2.52.03-3.711-.402-2.133-.774-4.24-.56-6.397-.103-4.655.988-9.353 1.546-14.132 1.527-8.165-.034-16.347-.391-24.491.116-13.536.84-26.967 3.004-40.545 3.437-1.743.057-3.467.182-5.226.119-6.236-.225-12.471-.849-18.679-.957-6.539-.114-13.129.142-19.686.369-9.387.323-18.628-.895-27.85-2.056-6.736-.847-13.416-1.455-20.21-1.678-11.399-.375-22.8-.976-34.175-1.961-5.022.476-10.066.753-15.153.577-6.556-.225-13.147-.479-19.686-.367-6.207.107-12.443.731-18.679.954-1.759.062-3.483-.063-5.226-.118-13.578-.432-27.009-2.591-40.545-3.43-8.144-.503-16.326-.148-24.491-.115-3.535.014-7.025-.287-10.487-.844-3.751.314-7.498.671-11.236 1.098-23.255 2.666-46.58 4.383-69.933 5.785-12.544.753-25.099 1.286-37.646 1.994-10.815.607-21.57 1.839-32.345 2.852-8.789.829-17.611 1.073-26.411 1.703-2.446.177-4.807-.33-7.055-1.341-1.143-.516-2.317-.984-3.582-1.046-6.401-.315-12.778-1.053-19.194-1.098-3.749-.027-7.499.026-11.248-.027-1.17-.018-2.606.072-3.217-.99-1.003-1.742-2.429-1.562-3.881-1.261-2.993.621-5.937.364-8.938.009-5.704-.674-11.456-.902-17.187-1.131-3.447-.139-6.93.255-10.413.771-3.981.593-8.023 1.318-12.116 1.111-2.606-.131-5.029-1.162-7.609-1.402-9.287-.865-18.629-.853-27.911-1.667-5.707-.502-11.504.241-17.135-1.274-1.051-.283-2.169-.186-3.227.071-6.945 1.686-14.005 1.923-21.105 1.783-10.833-.216-21.68-.169-32.427 1.267-13.983 1.868-27.999 2.516-42.081 2.238-2.931-.06-5.762-1.193-8.68-.928-6.894.623-13.786.588-20.695.452-6.575-.129-13.173.284-19.643-1.348-.805-.205-1.658-.134-2.489-.185-4.391-.27-8.837-.198-12.958-2.145-.62-.294-1.316-.149-1.976-.06-1.575.214-3.158.22-4.741.195-12.489-.192-24.944-1.033-37.394-1.955l-1.502-.115c-4.81.596-9.669.431-14.521.491-6.989.084-13.965.196-20.945-.429-3.49-.314-6.901.906-10.428.954-13.753.186-27.429-.531-41.076-2.353-12.166-1.626-24.44-1.277-36.682-1.176a68.667 68.667 0 0 1-11.26-.841c-2.048.177-4.094.368-6.138.581-23.687 2.475-47.38 4.71-71.172 5.98-13.875.742-27.754 1.463-41.626 2.308-10.729.653-21.403 1.838-32.095 2.845-8.79.829-17.612 1.062-26.41 1.716-2.533.19-4.974-.316-7.299-1.373-1.141-.52-2.322-.966-3.587-1.026-6.817-.322-13.606-1.151-20.444-1.096-3.333.026-6.666.041-9.998-.021-1.085-.022-2.423.071-3.01-.887-1.138-1.857-2.718-1.653-4.356-1.317-2.742.562-5.442.341-8.195.007-5.868-.711-11.786-.917-17.684-1.17-2.779-.117-5.634-.151-8.451.438-4.303.902-8.696 1.196-13.083 1.435-1.081.059-2.175-.01-3.228-.295-6.663-1.791-13.537-1.703-20.331-2.132-10.116-.637-20.279-.531-30.346-1.957-.747-.107-1.516-.137-2.241.043-10.835 2.695-21.876 1.754-32.85 1.817-7.928.046-15.814.583-23.656 1.613-13.406 1.757-26.856 2.214-40.35 1.902-.59-.013-1.174-.067-2.655-.147.319.08-.265.134-.854.147-13.495.312-26.945-.145-40.351-1.902a189.933 189.933 0 0 0-23.656-1.613c-10.974-.063-22.015.878-32.85-1.817-.726-.18-1.494-.15-2.241-.043-10.067 1.426-20.23 1.32-30.346 1.957-6.794.429-13.668.341-20.331 2.132-1.053.285-2.147.354-3.228.295-4.386-.239-8.78-.533-13.083-1.435-2.817-.589-5.672-.555-8.451-.438-5.898.253-11.816.459-17.685 1.17-2.752.334-5.452.555-8.194-.007-1.638-.336-3.218-.54-4.356 1.317-.587.958-1.925.865-3.009.887-3.333.062-6.666.047-9.999.021-6.838-.055-13.627.774-20.443 1.096-1.267.06-2.447.506-3.588 1.026-2.324 1.057-4.766 1.563-7.299 1.373-8.798-.654-17.62-.887-26.41-1.716-10.692-1.007-21.366-2.192-32.095-2.845-13.871-.845-27.751-1.566-41.626-2.308-23.792-1.27-47.485-3.505-71.172-5.98-2.044-.213-4.09-.404-6.138-.581a68.667 68.667 0 0 1-11.26.841c-12.242-.101-24.516-.45-36.682 1.176-13.647 1.822-27.322 2.539-41.076 2.353-3.527-.048-6.938-1.268-10.428-.954-6.98.625-13.956.513-20.945.429-4.852-.06-9.711.105-14.521-.491l-1.502.115c-12.45.922-24.906 1.763-37.394 1.955-1.583.025-3.166.019-4.741-.195-.66-.089-1.356-.234-1.976.06-4.12 1.947-8.567 1.875-12.958 2.145-.831.051-1.683-.02-2.489.185-6.47 1.632-13.068 1.219-19.643 1.348-6.909.136-13.801.171-20.695-.452-2.918-.265-5.749.868-8.68.928-14.083.278-28.098-.37-42.081-2.238-10.747-1.436-21.594-1.483-32.427-1.267-7.1.14-14.16-.097-21.105-1.783-1.058-.257-2.176-.354-3.227-.071-5.631 1.515-11.428.772-17.135 1.274-9.282.814-18.624.802-27.911 1.667-2.58.24-5.003 1.271-7.609 1.402-4.094.207-8.135-.518-12.116-1.111-3.483-.516-6.966-.91-10.413-.771-5.731.229-11.483.457-17.187 1.131-3.001.355-5.945.612-8.938-.009-1.452-.301-2.878-.481-3.881 1.261-.611 1.062-2.047.972-3.217.99-3.749.053-7.499 0-11.248.027-6.416.045-12.793.783-19.194 1.098-1.265.062-2.439.53-3.582 1.046-2.248 1.011-4.608 1.518-7.055 1.341-8.8-.63-17.622-.874-26.411-1.703-10.775-1.013-21.53-2.245-32.345-2.852-12.547-.708-25.102-1.241-37.646-1.994-23.353-1.402-46.678-3.119-69.933-5.785a373.9 373.9 0 0 0-11.236-1.098c-3.462.557-6.952.858-10.487.844-8.165-.033-16.347-.388-24.491.115-13.536.839-26.967 2.998-40.545 3.43-1.743.055-3.467.18-5.226.118-6.236-.223-12.471-.847-18.679-.954-6.539-.112-13.129.142-19.686.367-5.087.176-10.131-.101-15.153-.577-11.375.985-22.776 1.586-34.175 1.961-6.794.223-13.474.831-20.21 1.678-9.222 1.161-18.463 2.379-27.85 2.056-6.556-.227-13.147-.483-19.686-.369-6.208.108-12.443.732-18.679.957-1.759.063-3.483-.062-5.226-.119-13.578-.433-27.009-2.597-40.545-3.437-8.144-.507-16.326-.15-24.491-.116-4.779.019-9.477-.539-14.132-1.527-2.157-.457-4.265-.671-6.397.103-1.191.432-2.462.354-3.712.402-13.14.496-26.274 1.111-39.39 2.081-2.669.199-5.159 1.415-7.858 1.399-4.569-.024-9.11-.54-13.581-1.387-2.91-.553-5.837-.587-8.697-.474-5.898.242-11.818.443-17.684 1.168-2.838.351-5.615.513-8.444-.025-1.562-.298-3.197-.704-4.198 1.372-.427.886-1.754.816-2.757.844-2.416.07-4.834.084-7.248.022-7.759-.203-15.464.699-23.194 1.079-1.353.067-2.613.514-3.834 1.064-2.246 1.013-4.602 1.535-7.052 1.359-8.799-.628-17.621-.874-26.411-1.699-10.775-1.009-21.532-2.206-32.344-2.867-13.871-.846-27.751-1.566-41.625-2.309-23.792-1.273-47.482-3.539-71.17-5.993a634.508 634.508 0 0 0-5.827-.575c-5.393.83-10.845.946-16.321.838-10.833-.215-21.68-.165-32.427 1.265-13.983 1.864-27.999 2.51-42.081 2.233-2.931-.058-5.762-1.19-8.68-.926-6.894.623-13.786.587-20.695.451-5.009-.098-10.031.117-15-.495-.508.038-1.016.079-1.524.116-12.366.919-24.739 1.742-37.143 1.952-1.666.029-3.333.023-4.991-.198-.659-.089-1.341-.21-1.971.09-3.957 1.888-8.244 1.806-12.464 2.11-.995.071-2.018-.043-2.987.199-6.307 1.574-12.732 1.26-19.144 1.337-6.989.084-13.965.198-20.945-.43-3.49-.314-6.901.91-10.428.957-13.754.187-27.429-.532-41.077-2.361-12.165-1.627-24.439-1.277-36.681-1.176a69.073 69.073 0 0 1-15.373-1.616c-1.906-.416-3.786-.542-5.668.113-1.278.443-2.617.432-3.952.483-13.142.485-26.276 1.109-39.392 2.083-2.588.191-5.012 1.245-7.611 1.397-4.177.246-8.307-.471-12.367-1.102-3.486-.541-6.974-.926-10.415-.76-6.145.304-12.322.423-18.426 1.306-2.689.387-5.299.181-7.948-.226-1.324-.201-2.73-.586-3.565 1.252-.47 1.034-1.848.991-2.935 1.024a132 132 0 0 1-7.498.024c-7.676-.188-15.297.707-22.945 1.084-1.352.066-2.613.508-3.835 1.061-2.325 1.054-4.773 1.548-7.303 1.355-8.797-.662-17.62-.889-26.41-1.726-10.691-1.018-21.367-2.182-32.095-2.838-13.789-.843-27.588-1.478-41.378-2.291a1899.984 1899.984 0 0 1-39.859-2.745c-10.126-.811-20.207-2.179-30.324-3.125-2.429-.226-4.86-.438-7.291-.637-9.014 1.301-18.137.668-27.214.719-7.928.046-15.814.583-23.656 1.609-13.406 1.753-26.856 2.21-40.35 1.899-1.423-.032-2.817-.301-4.203-.592-.906-.187-1.784-.464-2.281-1.357-.188-.563-.173-1.149-.173-1.731v-2.881a6.377 6.377 0 0 1-.096-1.171C.02 40.581.006 24.069.022 7.556c.001-.417.008-.832.076-1.233V2.391C.098 1.565 0 .708.591 0h5076.817c.592.708.494 1.565.494 2.391v3.932c.068.401.075.816.076 1.233z"/>
</svg>
