<svg xmlns="http://www.w3.org/2000/svg" width="2539" height="37">
    <path fillRule="evenodd" fill="#FFF" d="M2538.989 33.219c.008-8.264.001-16.527.01-24.79 0-.215-.015-.41-.048-.586V6.401c0-.291.008-.584-.087-.867-.248-.446-.687-.585-1.14-.678-.693-.146-1.39-.28-2.101-.296-6.747-.156-13.473.072-20.175.95a95.177 95.177 0 0 1-11.828.805c-4.539.026-9.1-.291-13.608.36-1.215-.1-2.43-.205-3.645-.319-5.059-.473-10.099-1.157-15.162-1.564a947.27 947.27 0 0 0-19.929-1.373c-6.895-.407-13.795-.725-20.689-1.147-5.365-.328-10.703-.911-16.048-1.421-4.395-.418-8.806-.531-13.205-.863-1.265-.096-2.489.152-3.652.678-.61.276-1.241.498-1.917.532-3.824.188-7.635.636-11.473.541a66.95 66.95 0 0 0-3.749.013c-1.443.017-1.232-.005-1.467.512-.418.919-1.12.728-1.782.626-1.325-.203-2.63-.306-3.975-.112-3.052.442-6.14.502-9.212.652-1.721.084-3.465-.109-5.208-.379-2.03-.316-4.095-.674-6.184-.552-1.299.076-2.511.604-3.805.699-6.558.488-13.125.799-19.696 1.043-.667.025-1.337.019-1.976.242-.941.327-1.881.264-2.834.056a34.571 34.571 0 0 0-7.687-.809c-6.121.051-12.257.227-18.34-.589-6.824-.914-13.662-1.274-20.539-1.18-1.763.024-3.468.635-5.213.478-3.49-.314-6.979-.257-10.473-.215-3.206.039-6.419-.119-9.572.669-.485.121-.996.064-1.494.1-2.11.152-4.253.111-6.232 1.055-.315.151-.656.09-.985.046-.829-.11-1.662-.113-2.495-.1-6.202.105-12.389.518-18.572.977-.254.018-.508.04-.762.059-2.484-.307-4.996-.199-7.5-.248-3.454-.068-6.901-.086-10.347.226-1.46.132-2.875-.435-4.34-.464-7.042-.139-14.05.184-21.041 1.117-5.373.717-10.797.741-16.213.633-2.739-.054-5.464.004-8.161.42-.972-.091-1.943-.187-2.913-.288-11.844-1.227-23.69-2.362-35.585-2.999-6.938-.371-13.877-.731-20.813-1.155-5.406-.331-10.784-.93-16.172-1.435-4.395-.413-8.806-.536-13.206-.851-1.225-.088-2.403.174-3.525.681-.611.275-1.241.499-1.917.532-3.865.19-7.718.642-11.597.54a66.343 66.343 0 0 0-3.624.011c-.502.014-1.166-.02-1.379.424-.5 1.038-1.318.834-2.099.685-1.414-.269-2.803-.188-4.222-.012-2.933.362-5.893.464-8.842.583-1.43.058-2.894.04-4.349-.236-2.235-.424-4.505-.682-6.79-.694-1.349-.008-2.595.601-3.929.699-6.558.487-13.125.795-19.695 1.043-.625.023-1.261-.016-1.856.201-1.066.387-2.12.28-3.198.05-2.328-.494-4.677-.773-7.067-.763-4.082.016-8.173.194-12.245-.058-6.768-.421-13.484-1.503-20.273-1.721-.871-.027-1.733-.09-2.612-.058-3.119.111-6.236.425-9.34.478-3.269.057-6.565-.071-9.843-.184-4.693-.162-9.314.448-13.925 1.029-3.368.423-6.708.728-10.105.84-5.699.187-11.4.487-17.087.98-2.511-.237-5.033-.376-7.577-.288-3.278.113-6.574.24-9.843.183-3.104-.053-6.221-.366-9.34-.477-.879-.032-1.741.032-2.613.059-6.788.217-13.504 1.297-20.272 1.716-4.072.252-8.163.075-12.245.058a32.194 32.194 0 0 0-5.244.422 181.867 181.867 0 0 1-5.618-.55c-11.627-1.333-23.29-2.192-34.967-2.894-6.271-.376-12.549-.644-18.822-.997-5.408-.305-10.785-.921-16.173-1.429-4.395-.414-8.806-.536-13.205-.852-1.224-.088-2.404.165-3.528.672-.572.258-1.158.492-1.791.523-3.201.158-6.389.527-9.597.55-1.875.013-3.749-.014-5.624.013-.585.009-1.303-.036-1.609.496-.501.872-1.214.781-1.94.631-1.497-.311-2.969-.182-4.469-.004-2.852.337-5.728.45-8.594.566-1.723.069-3.464-.128-5.206-.387-1.99-.296-4.011-.658-6.058-.556-1.303.066-2.514.582-3.804.701-4.644.434-9.315.428-13.956.835-2.854.251-5.752-.121-8.567.638-.526.141-1.085.092-1.614-.036-3.473-.843-7.002-.962-10.553-.892-5.416.108-10.84.084-16.213-.634-6.991-.935-13.999-1.26-21.041-1.12-1.465.029-2.881.597-4.34.465-3.447-.313-6.893-.295-10.347-.227-3.287.064-6.586-.143-9.822.675-.402.102-.828.067-1.244.093-2.195.135-4.419.098-6.479 1.072-.31.147-.658.075-.988.031-.787-.106-1.579-.109-2.371-.098-6.244.096-12.472.517-18.697.979l-.75.057c-2.405-.298-4.835-.216-7.261-.246-3.494-.042-6.983-.098-10.473.216-1.744.156-3.45-.455-5.213-.478-6.877-.093-13.715.265-20.539 1.178-6.083.813-12.219.638-18.34.588a34.325 34.325 0 0 0-5.63.42 165.93 165.93 0 0 1-3.07-.291c-11.843-1.238-23.69-2.357-35.585-2.992-6.938-.371-13.878-.731-20.814-1.155-5.364-.327-10.701-.92-16.047-1.424-4.395-.414-8.806-.531-13.205-.859-1.266-.094-2.487.159-3.649.688-.571.261-1.161.483-1.794.513-3.409.161-6.803.576-10.222.549a189.328 189.328 0 0 0-4.999.01c-.542.011-1.211-.035-1.505.444-.569.93-1.359.827-2.178.659-1.371-.282-2.721-.171-4.097-.003-2.934.356-5.893.459-8.842.585-1.39.059-2.818.076-4.226-.219-2.152-.451-4.348-.599-6.542-.718a5.1 5.1 0 0 0-1.613.147c-3.332.897-6.769.852-10.166 1.067-5.058.32-10.139.266-15.173.98-.374.052-.758.068-1.12-.022-5.418-1.349-10.939-.877-16.426-.909a95.179 95.179 0 0 1-11.828-.807c-6.702-.879-13.428-1.108-20.175-.952a8.018 8.018 0 0 0-.877.073 8.018 8.018 0 0 0-.877-.073c-6.747-.156-13.473.073-20.175.952a95.179 95.179 0 0 1-11.828.807c-5.487.032-11.008-.44-16.426.909-.362.09-.746.074-1.12.022-5.034-.714-10.115-.66-15.173-.98-3.397-.215-6.834-.17-10.166-1.067a5.1 5.1 0 0 0-1.613-.147c-2.194.119-4.39.267-6.542.718-1.408.295-2.836.278-4.226.219-2.949-.126-5.908-.229-8.842-.585-1.376-.168-2.726-.279-4.097.003-.819.168-1.609.271-2.178-.659-.293-.479-.962-.433-1.505-.444a189.328 189.328 0 0 0-4.999-.01c-3.419.027-6.813-.388-10.222-.549-.633-.03-1.223-.252-1.794-.513-1.162-.529-2.383-.782-3.649-.688-4.399.328-8.81.445-13.205.859-5.346.504-10.683 1.097-16.048 1.424-6.935.424-13.875.784-20.813 1.155-11.895.635-23.742 1.754-35.585 2.992a165.93 165.93 0 0 1-3.07.291 34.325 34.325 0 0 0-5.63-.42c-6.121.05-12.257.225-18.34-.588-6.824-.913-13.662-1.271-20.539-1.178-1.763.023-3.469.634-5.213.478-3.49-.314-6.979-.258-10.473-.216-2.426.03-4.856-.052-7.261.246-.25-.018-.5-.039-.751-.057-6.224-.462-12.452-.883-18.697-.979-.791-.011-1.583-.008-2.37.098-.33.044-.678.116-.988-.031-2.06-.974-4.284-.937-6.479-1.072-.416-.026-.842.009-1.245-.093-3.235-.818-6.534-.611-9.821-.675-3.454-.068-6.901-.086-10.348.227-1.459.132-2.874-.436-4.339-.465-7.042-.14-14.05.185-21.041 1.12-5.373.718-10.797.742-16.213.634-3.551-.07-7.08.049-10.553.892-.529.128-1.088.177-1.613.036-2.816-.759-5.714-.387-8.568-.638-4.641-.407-9.312-.401-13.955-.835-1.291-.119-2.502-.635-3.805-.701-2.047-.102-4.068.26-6.058.556-1.741.259-3.483.456-5.206.387-2.866-.116-5.742-.229-8.594-.566-1.5-.178-2.972-.307-4.469.004-.726.15-1.439.241-1.94-.631-.306-.532-1.024-.487-1.609-.496-1.874-.027-3.749 0-5.624-.013-3.208-.023-6.396-.392-9.597-.55-.633-.031-1.219-.265-1.791-.523-1.124-.507-2.304-.76-3.528-.672-4.399.316-8.81.438-13.205.852-5.388.508-10.765 1.124-16.173 1.429-6.273.353-12.551.621-18.822.997-11.677.702-23.34 1.561-34.967 2.894-1.869.215-3.742.393-5.618.55a32.194 32.194 0 0 0-5.244-.422c-4.082.017-8.173.194-12.245-.058-6.768-.419-13.484-1.499-20.273-1.716-.871-.027-1.733-.091-2.612-.059-3.119.111-6.236.424-9.34.477-3.269.057-6.565-.07-9.843-.183-2.544-.088-5.066.051-7.576.288-5.688-.493-11.389-.793-17.088-.98-3.397-.112-6.737-.417-10.105-.84-4.611-.581-9.232-1.191-13.925-1.029-3.278.113-6.574.241-9.843.184-3.104-.053-6.221-.367-9.34-.478-.879-.032-1.741.031-2.613.058-6.788.218-13.504 1.3-20.272 1.721-4.072.252-8.163.074-12.245.058-2.39-.01-4.739.269-7.067.763-1.078.23-2.132.337-3.198-.05-.595-.217-1.231-.178-1.856-.201-6.57-.248-13.137-.556-19.695-1.043-1.334-.098-2.58-.707-3.929-.699-2.285.012-4.555.27-6.79.694-1.455.276-2.919.294-4.349.236-2.949-.119-5.909-.221-8.842-.583-1.419-.176-2.808-.257-4.222.012-.781.149-1.599.353-2.099-.685-.213-.444-.877-.41-1.378-.424a66.38 66.38 0 0 0-3.625-.011c-3.879.102-7.732-.35-11.597-.54-.676-.033-1.306-.257-1.916-.532-1.123-.507-2.301-.769-3.526-.681-4.4.315-8.811.438-13.206.851-5.388.505-10.766 1.104-16.172 1.435-6.936.424-13.875.784-20.813 1.155-11.896.637-23.741 1.772-35.585 2.999-.97.101-1.942.197-2.913.288-2.697-.416-5.423-.474-8.161-.42-5.416.108-10.84.084-16.213-.633-6.991-.933-13.999-1.256-21.041-1.117-1.465.029-2.881.596-4.34.464-3.447-.312-6.893-.294-10.347-.226-2.504.049-5.016-.059-7.5.248-.254-.019-.508-.041-.762-.059-6.183-.459-12.37-.872-18.572-.977-.833-.013-1.666-.01-2.495.1-.329.044-.67.105-.985-.046-1.979-.944-4.122-.903-6.232-1.055-.498-.036-1.009.021-1.494-.1-3.154-.788-6.366-.63-9.572-.669-3.494-.042-6.983-.099-10.473.215-1.744.157-3.45-.454-5.213-.478-6.877-.094-13.715.266-20.539 1.18-6.083.816-12.219.64-18.34.589a34.571 34.571 0 0 0-7.687.809c-.953.208-1.893.271-2.834-.056-.639-.223-1.308-.217-1.976-.242-6.571-.244-13.138-.555-19.696-1.043-1.294-.095-2.506-.623-3.805-.699-2.089-.122-4.154.236-6.184.552-1.743.27-3.487.463-5.207.379-3.073-.15-6.161-.21-9.213-.652-1.345-.194-2.65-.091-3.975.112-.662.102-1.364.293-1.782-.626-.235-.517-.924-.495-1.467-.512a66.95 66.95 0 0 0-3.749-.013c-3.838.095-7.649-.353-11.473-.541-.676-.034-1.307-.256-1.917-.532-1.163-.526-2.387-.774-3.652-.678-4.399.332-8.81.445-13.205.863-5.345.51-10.683 1.093-16.047 1.421-6.895.422-13.795.74-20.69 1.147a947.27 947.27 0 0 0-19.929 1.373c-5.063.407-10.103 1.091-15.162 1.564-1.215.114-2.43.219-3.645.319-4.508-.651-9.069-.334-13.608-.36a95.177 95.177 0 0 1-11.828-.805c-6.702-.878-13.428-1.106-20.175-.95-.711.016-1.408.15-2.101.296-.453.093-.892.232-1.14.678-.095.283-.087.576-.087.867v1.442a3.194 3.194 0 0 0-.048.586c.009 8.263.002 16.526.01 24.79 0 .208.004.417.038.617v1.968c0 .413-.049.842.247.296h2538.408c.296.546.247.117.247-.296v-1.968c.034-.2.038-.409.038-.617z"/>
</svg>
