<svg xmlns="http://www.w3.org/2000/svg" width="5078" height="74">
    <path fillRule="evenodd" fill="#ffffff" d="M5077.978 66.445c.015-16.514.002-33.026.02-49.54 0-.429-.03-.818-.096-1.17v-2.882c0-.58.015-1.167-.173-1.733-.497-.89-1.375-1.167-2.281-1.354-1.386-.29-2.78-.56-4.202-.592-13.495-.311-26.945.145-40.351 1.899a190.506 190.506 0 0 1-23.656 1.609c-9.077.052-18.2-.582-27.214.719-2.431-.199-4.862-.41-7.291-.638-10.118-.945-20.198-2.312-30.323-3.124a1893.792 1893.792 0 0 0-39.86-2.744c-13.79-.814-27.589-1.448-41.378-2.293-10.728-.655-21.405-1.82-32.096-2.838-8.789-.835-17.612-1.063-26.409-1.727-2.53-.19-4.977.303-7.303 1.357-1.222.552-2.483.994-3.835 1.061-7.648.377-15.269 1.272-22.945 1.084-2.498-.06-5-.057-7.498.023-1.987.035-2.465-.009-2.935 1.024-.835 1.838-2.241 1.454-3.564 1.252-2.65-.406-5.261-.612-7.949-.224-6.104.882-12.281 1.002-18.426 1.305-3.441.167-6.929-.219-10.415-.759-4.06-.631-8.191-1.349-12.367-1.104-2.599.152-5.023 1.207-7.611 1.398-13.116.975-26.25 1.598-39.392 2.083-1.335.05-2.674.039-3.952.485-1.883.652-3.762.527-5.668.11a69.131 69.131 0 0 0-15.373-1.615c-12.242.102-24.516.452-36.682-1.178-13.647-1.827-27.322-2.546-41.076-2.359-3.527.049-6.938 1.272-10.428.957-6.98-.628-13.956-.514-20.945-.43-6.412.078-12.837-.238-19.144 1.337-.969.241-1.992.127-2.987.199-4.22.303-8.507.221-12.464 2.11-.63.3-1.312.179-1.971.091-1.658-.221-3.325-.227-4.991-.2-12.404.21-24.777 1.033-37.143 1.952-.508.037-1.016.079-1.524.117-4.969-.613-9.991-.396-15-.495-6.909-.136-13.801-.171-20.695.451-2.918.265-5.749-.868-8.68-.926-14.083-.279-28.098.369-42.081 2.231-10.747 1.434-21.594 1.482-32.427 1.267-5.476-.108-10.928.008-16.321.839a601.36 601.36 0 0 1-5.827-.578c-23.688-2.451-47.378-4.719-71.169-5.991-13.875-.742-27.755-1.461-41.626-2.31-10.812-.659-21.568-1.857-32.344-2.867-8.79-.823-17.612-1.07-26.411-1.699-2.451-.175-4.806.346-7.052 1.36-1.221.55-2.481.998-3.834 1.064-7.73.381-15.435 1.282-23.194 1.079a131.695 131.695 0 0 0-7.248.021c-1.003.028-2.33-.041-2.758.847-1 2.073-2.635 1.667-4.197 1.37-2.829-.538-5.606-.376-8.444-.025-5.866.724-11.786.927-17.684 1.168-2.86.115-5.787.079-8.697-.475-4.471-.846-9.012-1.361-13.581-1.387-2.698-.015-5.189 1.202-7.858 1.4-13.116.971-26.25 1.586-39.391 2.08-1.249.049-2.52-.03-3.711.404-2.133.774-4.24.558-6.397.101-4.655-.988-9.353-1.545-14.132-1.526-8.165.033-16.347.388-24.491-.115-13.536-.841-26.967-3.005-40.545-3.439-1.743-.055-3.467-.181-5.226-.117-6.236.223-12.471.847-18.679.956-6.539.113-13.129-.142-19.686-.368-9.387-.324-18.628.894-27.85 2.054-6.736.848-13.416 1.456-20.21 1.68-11.399.374-22.8.974-34.175 1.96-5.022-.475-10.066-.752-15.153-.577-6.556.226-13.147.48-19.686.367-6.207-.107-12.443-.73-18.679-.955-1.759-.061-3.483.064-5.226.12-13.578.432-27.009 2.59-40.545 3.428-8.144.506-16.326.15-24.491.116-3.535-.014-7.025.287-10.487.843-3.751-.313-7.498-.67-11.236-1.098-23.255-2.667-46.58-4.381-69.933-5.784-12.544-.753-25.099-1.287-37.646-1.994-10.815-.608-21.57-1.839-32.345-2.853-8.789-.827-17.611-1.072-26.411-1.704-2.446-.174-4.807.33-7.055 1.343-1.143.516-2.317.983-3.582 1.045-6.401.317-12.778 1.055-19.194 1.1-3.749.027-7.499-.028-11.248.027-1.17.017-2.606-.072-3.217.99-1.003 1.742-2.429 1.56-3.881 1.26-2.993-.62-5.937-.364-8.938-.008-5.704.673-11.456.9-17.187 1.131-3.447.138-6.93-.254-10.413-.772-3.981-.594-8.023-1.317-12.116-1.111-2.606.131-5.029 1.161-7.609 1.401-9.287.866-18.629.854-27.911 1.669-5.707.5-11.504-.243-17.135 1.274-1.051.281-2.169.184-3.227-.072-6.945-1.685-14.005-1.922-21.105-1.782-10.833.215-21.68.168-32.427-1.268-13.983-1.869-27.999-2.517-42.081-2.238-2.931.059-5.762 1.193-8.68.928-6.894-.623-13.786-.587-20.695-.452-6.575.128-13.173-.285-19.643 1.349-.805.203-1.658.134-2.489.185-4.391.27-8.837.197-12.958 2.143-.62.293-1.316.151-1.976.061-1.575-.213-3.158-.219-4.741-.196-12.489.193-24.944 1.033-37.394 1.955-.501.038-1.001.079-1.502.117-4.81-.596-9.669-.432-14.521-.491-6.989-.084-13.965-.198-20.945.428-3.49.314-6.901-.906-10.428-.952-13.753-.188-27.429.528-41.076 2.351-12.166 1.627-24.44 1.277-36.682 1.178a68.665 68.665 0 0 0-11.26.838 331.647 331.647 0 0 1-6.138-.582c-23.687-2.474-47.38-4.709-71.172-5.979-13.875-.74-27.754-1.461-41.626-2.307-10.729-.654-21.403-1.838-32.095-2.845-8.79-.828-17.612-1.061-26.41-1.718-2.533-.188-4.974.318-7.299 1.376-1.141.52-2.322.965-3.587 1.025-6.817.322-13.606 1.15-20.444 1.096-3.333-.027-6.666-.042-9.998.021-1.085.02-2.423-.071-3.01.887-1.138 1.858-2.718 1.652-4.356 1.317-2.742-.563-5.442-.341-8.195-.008-5.868.713-11.786.919-17.684 1.171-2.779.117-5.634.152-8.451-.438-4.303-.901-8.696-1.196-13.083-1.435-1.081-.059-2.175.009-3.228.294-6.663 1.792-13.537 1.703-20.331 2.132-10.116.639-20.279.531-30.346 1.96-.747.104-1.516.134-2.241-.045-10.835-2.696-21.876-1.754-32.85-1.817a190.137 190.137 0 0 1-23.656-1.612c-13.406-1.759-26.856-2.215-40.35-1.903-.59.012-1.174.068-2.655.147.319-.079-.265-.135-.854-.147-13.495-.312-26.945.144-40.351 1.903a190.124 190.124 0 0 1-23.656 1.612c-10.974.063-22.015-.879-32.85 1.817-.726.179-1.494.149-2.241.045-10.067-1.429-20.23-1.321-30.346-1.96-6.794-.429-13.668-.34-20.331-2.132-1.053-.285-2.147-.353-3.228-.294-4.386.239-8.78.534-13.083 1.435-2.817.59-5.672.555-8.451.438-5.898-.252-11.816-.458-17.685-1.171-2.752-.333-5.452-.555-8.194.008-1.638.335-3.218.541-4.356-1.317-.587-.958-1.925-.867-3.009-.887-3.333-.063-6.666-.048-9.999-.021-6.838.054-13.627-.774-20.443-1.096-1.267-.06-2.447-.505-3.588-1.025-2.324-1.058-4.766-1.564-7.299-1.376-8.798.657-17.62.89-26.41 1.718-10.692 1.007-21.366 2.191-32.095 2.845-13.871.846-27.751 1.567-41.626 2.307-23.792 1.27-47.485 3.505-71.172 5.979-2.044.214-4.09.406-6.138.582a68.665 68.665 0 0 0-11.26-.838c-12.242.099-24.516.449-36.682-1.178-13.647-1.823-27.322-2.539-41.076-2.351-3.527.046-6.938 1.266-10.428.952-6.98-.626-13.956-.512-20.945-.428-4.852.059-9.711-.105-14.521.491-.501-.038-1.002-.079-1.502-.117-12.45-.922-24.906-1.762-37.394-1.955-1.583-.023-3.166-.017-4.741.196-.66.09-1.356.232-1.976-.061-4.12-1.946-8.567-1.873-12.958-2.143-.831-.051-1.683.018-2.489-.185-6.47-1.634-13.068-1.221-19.643-1.349-6.909-.135-13.801-.171-20.695.452-2.918.265-5.749-.869-8.68-.928-14.083-.279-28.098.369-42.081 2.238-10.747 1.436-21.594 1.483-32.427 1.268-7.1-.14-14.16.097-21.105 1.782-1.058.256-2.176.353-3.227.072-5.631-1.517-11.428-.774-17.135-1.274-9.282-.815-18.624-.803-27.911-1.669-2.58-.24-5.003-1.27-7.609-1.401-4.094-.206-8.135.517-12.116 1.111-3.483.518-6.966.91-10.413.772-5.731-.231-11.483-.458-17.187-1.131-3.001-.356-5.945-.612-8.938.008-1.452.3-2.878.482-3.881-1.26-.611-1.062-2.047-.973-3.217-.99-3.749-.055-7.499 0-11.248-.027-6.416-.045-12.793-.783-19.194-1.1-1.265-.062-2.439-.529-3.582-1.045-2.248-1.013-4.608-1.517-7.055-1.343-8.8.632-17.622.877-26.411 1.704-10.775 1.014-21.53 2.245-32.345 2.853-12.547.707-25.102 1.241-37.646 1.994-23.353 1.403-46.678 3.117-69.933 5.784-3.739.428-7.485.785-11.236 1.098-3.462-.556-6.952-.857-10.487-.843-8.165.034-16.347.39-24.491-.116-13.536-.838-26.967-2.996-40.545-3.428-1.743-.056-3.467-.181-5.226-.12-6.236.225-12.471.848-18.679.955-6.539.113-13.129-.141-19.686-.367-5.087-.175-10.131.102-15.153.577-11.375-.986-22.776-1.586-34.175-1.96-6.794-.224-13.474-.832-20.21-1.68-9.222-1.16-18.463-2.378-27.85-2.054-6.556.226-13.147.481-19.686.368-6.208-.109-12.443-.733-18.679-.956-1.759-.064-3.483.062-5.226.117-13.578.434-27.009 2.598-40.545 3.439-8.144.503-16.326.148-24.491.115-4.779-.019-9.477.538-14.132 1.526-2.157.457-4.265.673-6.397-.101-1.191-.434-2.462-.355-3.712-.404-13.14-.494-26.274-1.109-39.39-2.08-2.669-.198-5.159-1.415-7.858-1.4-4.569.026-9.11.541-13.581 1.387-2.91.554-5.837.59-8.697.475-5.898-.241-11.818-.444-17.684-1.168-2.838-.351-5.615-.513-8.444.025-1.562.297-3.197.703-4.198-1.37-.427-.888-1.754-.819-2.757-.847-2.416-.07-4.834-.084-7.248-.021-7.759.203-15.464-.698-23.194-1.079-1.353-.066-2.613-.514-3.834-1.064-2.246-1.014-4.602-1.535-7.052-1.36-8.799.629-17.621.876-26.411 1.699-10.775 1.01-21.532 2.208-32.344 2.867-13.871.849-27.751 1.568-41.625 2.31-23.792 1.272-47.482 3.54-71.17 5.991a601.36 601.36 0 0 1-5.827.578c-5.393-.831-10.845-.947-16.321-.839-10.833.215-21.68.167-32.427-1.267-13.983-1.862-27.999-2.51-42.081-2.231-2.931.058-5.762 1.191-8.68.926-6.894-.622-13.786-.587-20.695-.451-5.009.099-10.031-.118-15 .495-.508-.038-1.016-.08-1.524-.117-12.366-.919-24.739-1.742-37.143-1.952-1.666-.027-3.333-.021-4.991.2-.659.088-1.341.209-1.971-.091-3.957-1.889-8.244-1.807-12.464-2.11-.995-.072-2.018.042-2.987-.199-6.307-1.575-12.732-1.259-19.144-1.337-6.989-.084-13.965-.198-20.945.43-3.49.315-6.901-.908-10.428-.957-13.754-.187-27.429.532-41.077 2.359-12.165 1.63-24.439 1.28-36.681 1.178a69.131 69.131 0 0 0-15.373 1.615c-1.906.417-3.786.542-5.668-.11-1.278-.446-2.617-.435-3.952-.485-13.142-.485-26.276-1.108-39.392-2.083-2.588-.191-5.012-1.246-7.611-1.398-4.177-.245-8.307.473-12.367 1.104-3.486.54-6.974.926-10.415.759-6.145-.303-12.322-.423-18.426-1.305-2.689-.388-5.299-.182-7.948.224-1.324.202-2.73.586-3.565-1.252-.47-1.033-1.848-.989-2.935-1.024-2.498-.08-5-.083-7.498-.023-7.676.188-15.297-.707-22.945-1.084-1.352-.067-2.613-.509-3.835-1.061C280.31.34 277.862-.153 275.332.037c-8.797.664-17.62.892-26.41 1.727-10.691 1.018-21.367 2.183-32.095 2.838-13.789.845-27.588 1.479-41.378 2.293a1893.234 1893.234 0 0 0-39.859 2.744c-10.126.812-20.207 2.179-30.324 3.124-2.429.228-4.86.439-7.291.638-9.014-1.301-18.137-.667-27.214-.719a190.519 190.519 0 0 1-23.656-1.609c-13.406-1.754-26.856-2.21-40.35-1.899-1.423.032-2.817.302-4.203.592-.906.187-1.784.464-2.281 1.354-.188.566-.173 1.153-.173 1.733v2.882a6.374 6.374 0 0 0-.096 1.17c.018 16.514.004 33.026.02 49.54.001.415.008.832.076 1.234v3.93c0 .826-.098 1.683.493 1.491h5076.817c.592.192.494-.665.494-1.491v-3.93c.068-.402.075-.819.076-1.234z"/>
</svg>
