<svg xmlns="http://www.w3.org/2000/svg" viewBox="0 0 24 24" width="24" height="24" color="#000" fill="none">
    <path d="m4.74 14.368 1.954-1.386a5.285 5.285 0 0 1 1.746-.823c.732-.195 1.06-.595 1.06-1.448 0-2.165 5-2.395 5 0 0 .853.328 1.253 1.06 1.447.642.171 1.2.435 1.746.824l1.954 1.386c.883.628 1.295.931 1.524 1.414.216.454.216.986.216 2.05 0 1.914 0 2.871-.536 3.484-.649.743-2.336.68-3.372.68H6.908c-1.036 0-2.689.103-3.372-.68C3 20.703 3 19.746 3 17.832c0-1.064 0-1.596.216-2.05.23-.482.64-.786 1.524-1.414z" stroke="white" stroke-width="1.5"/>
    <path d="M14 17a2 2 0 1 1-4 0 2 2 0 0 1 4 0z" stroke="white" stroke-width="1.5"/>
    <path d="M6.96 3.698c-1.318.376-2.266.843-3.134 1.407-1.373.892-1.962 2.499-1.8 4.05.068.656.595.97 1.205.8.464-.13.928-.255 1.389-.391 1.347-.4 1.664-.886 1.851-2.265l.49-3.601zm0 0c3.259-.93 6.821-.93 10.08 0m0 0c1.318.376 2.266.843 3.134 1.407 1.373.892 1.962 2.499 1.8 4.05-.068.656-.595.97-1.205.8-.463-.13-.928-.255-1.389-.391-1.347-.4-1.664-.886-1.851-2.265l-.49-3.601z" stroke="white" stroke-width="1.5" stroke-linejoin="round"/>
</svg>
