<svg xmlns="http://www.w3.org/2000/svg" width="5078" height="74">
    <path fill-rule="evenodd" fill="#1C1C1C" d="M5077.978 7.563c.015 16.514.002 33.026.02 49.54 0 .428-.03.818-.096 1.169v2.882c0 .582.015 1.168-.173 1.733-.497.891-1.375 1.167-2.281 1.356-1.386.29-2.78.558-4.202.59-13.495.312-26.945-.144-40.351-1.898a190.699 190.699 0 0 0-23.656-1.609c-9.077-.051-18.2.582-27.214-.719-2.431.199-4.862.41-7.291.637-10.118.946-20.198 2.313-30.323 3.124a1893.798 1893.798 0 0 1-39.86 2.745c-13.79.814-27.589 1.449-41.378 2.292-10.728.655-21.405 1.821-32.096 2.839-8.789.836-17.612 1.063-26.409 1.725-2.53.192-4.977-.302-7.303-1.355-1.222-.552-2.483-.994-3.835-1.061-7.648-.378-15.269-1.273-22.945-1.084-2.498.06-5 .056-7.498-.024-1.987-.035-2.465.009-2.935-1.025-.835-1.836-2.241-1.454-3.564-1.25-2.65.407-5.261.612-7.949.224-6.104-.882-12.281-1.002-18.426-1.304-3.441-.169-6.929.218-10.415.758-4.06.631-8.191 1.348-12.367 1.103-2.599-.152-5.023-1.206-7.611-1.397-13.116-.975-26.25-1.597-39.392-2.084-1.335-.049-2.674-.039-3.952-.483-1.883-.654-3.762-.528-5.668-.111a69.13 69.13 0 0 1-15.373 1.614c-12.242-.101-24.516-.45-36.682 1.178-13.647 1.827-27.322 2.547-41.076 2.36-3.527-.048-6.938-1.272-10.428-.957-6.98.628-13.956.515-20.945.43-6.412-.078-12.837.238-19.144-1.337-.969-.242-1.992-.128-2.987-.199-4.22-.304-8.507-.221-12.464-2.11-.63-.3-1.312-.179-1.971-.092-1.658.223-3.325.229-4.991.2-12.404-.21-24.777-1.034-37.143-1.952l-1.524-.117c-4.969.613-9.991.398-15 .496-6.909.136-13.801.171-20.695-.452-2.918-.264-5.749.869-8.68.927-14.083.278-28.098-.368-42.081-2.232-10.747-1.433-21.594-1.481-32.427-1.266-5.476.108-10.928-.008-16.321-.839-1.943.183-3.885.375-5.827.577-23.688 2.452-47.378 4.719-71.169 5.992-13.875.742-27.755 1.461-41.626 2.31-10.812.659-21.568 1.857-32.344 2.867-8.79.823-17.612 1.069-26.411 1.698-2.451.176-4.806-.346-7.052-1.359-1.221-.55-2.481-.998-3.834-1.065-7.73-.38-15.435-1.281-23.194-1.078-2.414.062-4.832.048-7.248-.021-1.003-.03-2.33.041-2.758-.846-1-2.075-2.635-1.668-4.197-1.371-2.829.538-5.606.376-8.444.025-5.866-.725-11.786-.927-17.684-1.167-2.86-.116-5.787-.079-8.697.473-4.471.847-9.012 1.363-13.581 1.387-2.698.016-5.189-1.201-7.858-1.399-13.116-.971-26.25-1.586-39.39-2.081-1.25-.048-2.521.03-3.712-.403-2.133-.774-4.24-.559-6.397-.101-4.655.988-9.353 1.545-14.132 1.525-8.165-.033-16.347-.388-24.491.116-13.536.841-26.967 3.005-40.545 3.438-1.743.055-3.467.182-5.226.118-6.236-.223-12.471-.848-18.679-.955-6.539-.114-13.129.141-19.686.367-9.387.324-18.628-.895-27.85-2.056-6.736-.847-13.416-1.455-20.21-1.678-11.399-.375-22.8-.975-34.175-1.96-5.022.475-10.066.753-15.153.577-6.556-.226-13.147-.481-19.686-.367-6.207.107-12.443.731-18.679.954-1.759.062-3.483-.063-5.226-.118-13.578-.433-27.009-2.593-40.545-3.43-8.144-.504-16.326-.149-24.491-.115-3.535.014-7.025-.287-10.487-.844-3.751.314-7.498.669-11.236 1.098-23.255 2.667-46.58 4.382-69.933 5.785-12.544.753-25.099 1.286-37.646 1.992-10.815.61-21.57 1.84-32.345 2.855-8.789.827-17.611 1.071-26.41 1.703-2.447.174-4.808-.33-7.056-1.343-1.143-.515-2.317-.982-3.582-1.044-6.401-.316-12.778-1.055-19.194-1.1-3.749-.027-7.499.028-11.248-.027-1.17-.018-2.606.072-3.217-.99-1.003-1.742-2.429-1.562-3.881-1.26-2.993.62-5.937.364-8.938.008-5.704-.673-11.456-.9-17.187-1.131-3.447-.138-6.93.254-10.413.772-3.981.593-8.023 1.317-12.116 1.11-2.606-.131-5.029-1.16-7.609-1.401-9.287-.866-18.629-.853-27.911-1.668-5.707-.501-11.504.242-17.135-1.274-1.051-.282-2.169-.185-3.227.071-6.945 1.686-14.005 1.924-21.105 1.783-10.833-.215-21.68-.167-32.427 1.268-13.983 1.869-27.999 2.517-42.081 2.238-2.931-.058-5.762-1.193-8.68-.929-6.894.624-13.786.589-20.695.453-6.575-.129-13.173.284-19.643-1.349-.805-.203-1.658-.135-2.489-.185-4.391-.27-8.837-.197-12.958-2.144-.62-.292-1.316-.15-1.976-.061-1.575.214-3.158.22-4.741.197-12.488-.194-24.944-1.033-37.394-1.956-.501-.038-1.001-.078-1.502-.115-4.81.596-9.669.43-14.521.49-6.989.084-13.965.198-20.945-.429-3.49-.314-6.901.906-10.428.953-13.753.187-27.429-.529-41.076-2.352-12.166-1.626-24.44-1.276-36.682-1.176a68.667 68.667 0 0 1-11.26-.84c-2.048.177-4.094.369-6.138.583-23.687 2.473-47.38 4.708-71.172 5.977-13.875.742-27.754 1.463-41.626 2.309-10.729.654-21.403 1.838-32.095 2.845-8.79.828-17.612 1.061-26.41 1.717-2.533.189-4.974-.318-7.299-1.376-1.141-.519-2.322-.965-3.587-1.024-6.817-.322-13.606-1.15-20.444-1.097-3.333.026-6.666.043-9.998-.02-1.085-.022-2.423.071-3.01-.887-1.138-1.858-2.718-1.653-4.356-1.317-2.742.563-5.442.341-8.195.008-5.868-.713-11.786-.92-17.684-1.17-2.779-.119-5.634-.154-8.451.436-4.303.902-8.696 1.197-13.083 1.435-1.081.059-2.175-.009-3.228-.293-6.663-1.793-13.537-1.703-20.331-2.133-10.116-.638-20.279-.53-30.346-1.958-.747-.105-1.515-.136-2.241.044-10.835 2.696-21.876 1.754-32.85 1.817a190.33 190.33 0 0 0-23.656 1.612c-13.406 1.758-26.856 2.215-40.35 1.904-.59-.013-1.174-.068-2.655-.148.319.08-.265.135-.854.148-13.495.311-26.945-.146-40.351-1.904a190.316 190.316 0 0 0-23.656-1.612c-10.974-.063-22.015.879-32.85-1.817-.726-.18-1.494-.149-2.241-.044-10.067 1.428-20.23 1.32-30.346 1.958-6.794.43-13.668.34-20.331 2.133-1.053.284-2.147.352-3.228.293-4.386-.238-8.78-.533-13.083-1.435-2.817-.59-5.672-.555-8.451-.436-5.898.25-11.816.457-17.685 1.17-2.752.333-5.452.555-8.194-.008-1.638-.336-3.218-.541-4.356 1.317-.587.958-1.925.865-3.009.887-3.333.063-6.666.046-9.999.02-6.838-.053-13.627.775-20.443 1.097-1.267.059-2.447.505-3.588 1.024-2.324 1.058-4.766 1.565-7.299 1.376-8.798-.656-17.62-.889-26.41-1.717-10.692-1.007-21.366-2.191-32.095-2.845-13.871-.846-27.751-1.567-41.626-2.309-23.792-1.269-47.485-3.504-71.172-5.977-2.044-.214-4.09-.406-6.138-.583a68.667 68.667 0 0 1-11.26.84c-12.242-.1-24.516-.45-36.682 1.176-13.647 1.823-27.322 2.539-41.076 2.352-3.527-.047-6.938-1.267-10.428-.953-6.98.627-13.956.513-20.945.429-4.852-.06-9.711.106-14.521-.49-.501.037-1.001.077-1.502.115-12.45.923-24.906 1.762-37.394 1.956-1.583.023-3.166.017-4.741-.197-.66-.089-1.356-.231-1.976.061-4.12 1.947-8.567 1.874-12.958 2.144-.831.05-1.683-.018-2.489.185-6.47 1.633-13.068 1.22-19.643 1.349-6.909.136-13.801.171-20.695-.453-2.918-.264-5.749.871-8.68.929-14.083.279-28.098-.369-42.081-2.238-10.747-1.435-21.594-1.483-32.427-1.268-7.1.141-14.16-.097-21.105-1.783-1.058-.256-2.176-.353-3.227-.071-5.631 1.516-11.428.773-17.135 1.274-9.282.815-18.624.802-27.911 1.668-2.58.241-5.003 1.27-7.609 1.401-4.093.207-8.135-.517-12.116-1.11-3.483-.518-6.966-.91-10.413-.772-5.731.231-11.483.458-17.187 1.131-3.001.356-5.945.612-8.938-.008-1.452-.302-2.878-.482-3.88 1.26-.612 1.062-2.048.972-3.218.99-3.749.055-7.499 0-11.248.027-6.416.045-12.793.784-19.194 1.1-1.265.062-2.439.529-3.582 1.044-2.248 1.013-4.608 1.517-7.055 1.343-8.8-.632-17.622-.876-26.411-1.703-10.775-1.015-21.53-2.245-32.345-2.855-12.547-.706-25.102-1.239-37.646-1.992-23.353-1.403-46.678-3.118-69.933-5.785a367.464 367.464 0 0 0-11.236-1.098c-3.462.557-6.952.858-10.487.844-8.165-.034-16.347-.389-24.491.115-13.536.837-26.967 2.997-40.545 3.43-1.743.055-3.467.18-5.226.118-6.236-.223-12.471-.847-18.679-.954-6.539-.114-13.129.141-19.686.367-5.087.176-10.131-.102-15.153-.577-11.375.985-22.776 1.585-34.175 1.96-6.794.223-13.474.831-20.21 1.678-9.222 1.161-18.463 2.38-27.85 2.056-6.556-.226-13.147-.481-19.686-.367-6.207.107-12.443.732-18.679.955-1.759.064-3.483-.063-5.226-.118-13.578-.433-27.009-2.597-40.545-3.438-8.144-.504-16.326-.149-24.491-.116-4.779.02-9.477-.537-14.132-1.525-2.157-.458-4.265-.673-6.397.101-1.191.433-2.462.355-3.712.403-13.14.495-26.274 1.11-39.39 2.081-2.669.198-5.159 1.415-7.858 1.399-4.569-.024-9.11-.54-13.581-1.387-2.91-.552-5.837-.589-8.697-.473-5.898.24-11.818.442-17.684 1.167-2.838.351-5.615.513-8.444-.025-1.562-.297-3.197-.704-4.198 1.371-.427.887-1.754.816-2.757.846-2.416.069-4.834.083-7.248.021-7.759-.203-15.464.698-23.194 1.078-1.353.067-2.613.515-3.834 1.065-2.246 1.013-4.602 1.535-7.052 1.359-8.799-.629-17.621-.875-26.411-1.698-10.775-1.01-21.532-2.208-32.344-2.867-13.871-.849-27.751-1.568-41.625-2.31-23.792-1.273-47.482-3.54-71.17-5.992a601.335 601.335 0 0 0-5.827-.577c-5.393.831-10.845.947-16.321.839-10.833-.215-21.68-.167-32.427 1.266-13.983 1.864-27.999 2.51-42.081 2.232-2.931-.058-5.762-1.191-8.68-.927-6.894.623-13.786.588-20.695.452-5.009-.098-10.031.117-15-.496l-1.524.117c-12.366.918-24.739 1.742-37.143 1.952-1.666.029-3.333.023-4.991-.2-.659-.087-1.341-.208-1.971.092-3.957 1.889-8.244 1.806-12.464 2.11-.995.071-2.018-.043-2.987.199-6.307 1.575-12.732 1.259-19.144 1.337-6.989.085-13.965.198-20.945-.43-3.49-.315-6.901.909-10.428.957-13.753.187-27.429-.533-41.076-2.36-12.166-1.628-24.44-1.279-36.682-1.178a69.13 69.13 0 0 1-15.373-1.614c-1.906-.417-3.786-.543-5.668.111-1.278.444-2.617.434-3.952.483-13.142.487-26.276 1.109-39.392 2.084-2.588.191-5.012 1.245-7.611 1.397-4.177.245-8.307-.472-12.367-1.103-3.486-.54-6.974-.927-10.415-.758-6.145.302-12.322.422-18.426 1.304-2.688.388-5.299.183-7.948-.224-1.324-.204-2.73-.586-3.565 1.25-.47 1.034-1.848.99-2.935 1.025-2.498.08-5 .084-7.498.024-7.676-.189-15.297.706-22.945 1.084-1.352.067-2.613.509-3.835 1.061-2.325 1.053-4.773 1.547-7.303 1.355-8.797-.662-17.62-.889-26.409-1.725-10.692-1.018-21.368-2.184-32.096-2.839-13.789-.843-27.588-1.478-41.378-2.292a1893.24 1893.24 0 0 1-39.859-2.745c-10.126-.811-20.207-2.178-30.324-3.124-2.429-.227-4.86-.438-7.291-.637-9.014 1.301-18.137.668-27.214.719-7.928.046-15.814.583-23.656 1.609-13.406 1.754-26.856 2.21-40.35 1.898-1.423-.032-2.817-.3-4.203-.59-.906-.189-1.784-.465-2.281-1.356-.188-.565-.173-1.151-.173-1.733v-2.882a6.363 6.363 0 0 1-.096-1.169c.018-16.514.004-33.026.02-49.54.001-.417.008-.833.076-1.233V2.398C.098 1.573 0 .716.591.008h5076.817c.592.708.494 1.565.494 2.39V6.33c.068.4.075.816.076 1.233z"/>
</svg>
